<mxfile host="app.diagrams.net" agent="Mozilla/5.0 (Windows NT 10.0; Win64; x64) AppleWebKit/537.36 (KHTML, like Gecko) Chrome/127.0.0.0 Safari/537.36" version="24.7.7">
  <diagram name="Page-1" id="QvhmWDUnzijZAXbM7_TB">
    <mxGraphModel dx="1366" dy="704" grid="1" gridSize="10" guides="1" tooltips="1" connect="1" arrows="1" fold="1" page="1" pageScale="1" pageWidth="850" pageHeight="1100" math="0" shadow="0">
      <root>
        <mxCell id="0" />
        <mxCell id="1" parent="0" />
        <mxCell id="vFlg7M4hYeE5aYaz60vm-236" value="Start" style="strokeWidth=2;html=1;shape=mxgraph.flowchart.start_1;whiteSpace=wrap;" parent="1" vertex="1">
          <mxGeometry x="370" y="220" width="100" height="60" as="geometry" />
        </mxCell>
        <mxCell id="vFlg7M4hYeE5aYaz60vm-237" value="" style="endArrow=classic;html=1;rounded=0;exitX=0.5;exitY=1;exitDx=0;exitDy=0;exitPerimeter=0;entryX=0.5;entryY=0;entryDx=0;entryDy=0;" parent="1" source="vFlg7M4hYeE5aYaz60vm-236" target="vFlg7M4hYeE5aYaz60vm-239" edge="1">
          <mxGeometry width="50" height="50" relative="1" as="geometry">
            <mxPoint x="400" y="370" as="sourcePoint" />
            <mxPoint x="420" y="320" as="targetPoint" />
          </mxGeometry>
        </mxCell>
        <mxCell id="vFlg7M4hYeE5aYaz60vm-238" style="edgeStyle=orthogonalEdgeStyle;rounded=0;orthogonalLoop=1;jettySize=auto;html=1;exitX=0.5;exitY=1;exitDx=0;exitDy=0;" parent="1" source="vFlg7M4hYeE5aYaz60vm-239" target="vFlg7M4hYeE5aYaz60vm-244" edge="1">
          <mxGeometry relative="1" as="geometry">
            <mxPoint x="420.258064516129" y="480" as="targetPoint" />
          </mxGeometry>
        </mxCell>
        <mxCell id="vFlg7M4hYeE5aYaz60vm-239" value="Customer Registration and Login" style="rounded=1;whiteSpace=wrap;html=1;absoluteArcSize=1;arcSize=14;strokeWidth=2;" parent="1" vertex="1">
          <mxGeometry x="370" y="320" width="100" height="100" as="geometry" />
        </mxCell>
        <mxCell id="vFlg7M4hYeE5aYaz60vm-240" value="" style="edgeStyle=orthogonalEdgeStyle;rounded=0;orthogonalLoop=1;jettySize=auto;html=1;" parent="1" source="vFlg7M4hYeE5aYaz60vm-244" target="vFlg7M4hYeE5aYaz60vm-246" edge="1">
          <mxGeometry relative="1" as="geometry" />
        </mxCell>
        <mxCell id="vFlg7M4hYeE5aYaz60vm-241" value="NO" style="edgeLabel;html=1;align=center;verticalAlign=middle;resizable=0;points=[];" parent="vFlg7M4hYeE5aYaz60vm-240" vertex="1" connectable="0">
          <mxGeometry x="-0.2821" y="-1" relative="1" as="geometry">
            <mxPoint as="offset" />
          </mxGeometry>
        </mxCell>
        <mxCell id="vFlg7M4hYeE5aYaz60vm-242" value="" style="edgeStyle=orthogonalEdgeStyle;rounded=0;orthogonalLoop=1;jettySize=auto;html=1;" parent="1" source="vFlg7M4hYeE5aYaz60vm-244" target="vFlg7M4hYeE5aYaz60vm-260" edge="1">
          <mxGeometry relative="1" as="geometry" />
        </mxCell>
        <mxCell id="vFlg7M4hYeE5aYaz60vm-243" value="YES" style="edgeLabel;html=1;align=center;verticalAlign=middle;resizable=0;points=[];" parent="vFlg7M4hYeE5aYaz60vm-242" vertex="1" connectable="0">
          <mxGeometry x="-0.0112" relative="1" as="geometry">
            <mxPoint as="offset" />
          </mxGeometry>
        </mxCell>
        <mxCell id="vFlg7M4hYeE5aYaz60vm-244" value="Is the Customer Registered?" style="strokeWidth=2;html=1;shape=mxgraph.flowchart.decision;whiteSpace=wrap;" parent="1" vertex="1">
          <mxGeometry x="369.99806451612903" y="470" width="100" height="100" as="geometry" />
        </mxCell>
        <mxCell id="vFlg7M4hYeE5aYaz60vm-245" style="edgeStyle=orthogonalEdgeStyle;rounded=0;orthogonalLoop=1;jettySize=auto;html=1;" parent="1" source="vFlg7M4hYeE5aYaz60vm-246" target="vFlg7M4hYeE5aYaz60vm-248" edge="1">
          <mxGeometry relative="1" as="geometry">
            <mxPoint x="710" y="520" as="targetPoint" />
          </mxGeometry>
        </mxCell>
        <mxCell id="vFlg7M4hYeE5aYaz60vm-246" value="Email Registration" style="whiteSpace=wrap;html=1;strokeWidth=2;" parent="1" vertex="1">
          <mxGeometry x="539.998064516129" y="490" width="120" height="60" as="geometry" />
        </mxCell>
        <mxCell id="vFlg7M4hYeE5aYaz60vm-247" value="" style="edgeStyle=orthogonalEdgeStyle;rounded=0;orthogonalLoop=1;jettySize=auto;html=1;" parent="1" source="vFlg7M4hYeE5aYaz60vm-248" target="vFlg7M4hYeE5aYaz60vm-250" edge="1">
          <mxGeometry relative="1" as="geometry" />
        </mxCell>
        <mxCell id="vFlg7M4hYeE5aYaz60vm-248" value="Input Email" style="shape=parallelogram;html=1;strokeWidth=2;perimeter=parallelogramPerimeter;whiteSpace=wrap;rounded=1;arcSize=12;size=0.23;" parent="1" vertex="1">
          <mxGeometry x="750" y="490" width="100" height="60" as="geometry" />
        </mxCell>
        <mxCell id="vFlg7M4hYeE5aYaz60vm-249" value="" style="edgeStyle=orthogonalEdgeStyle;rounded=0;orthogonalLoop=1;jettySize=auto;html=1;" parent="1" source="vFlg7M4hYeE5aYaz60vm-250" target="vFlg7M4hYeE5aYaz60vm-252" edge="1">
          <mxGeometry relative="1" as="geometry" />
        </mxCell>
        <mxCell id="vFlg7M4hYeE5aYaz60vm-250" value="Input Password" style="shape=parallelogram;html=1;strokeWidth=2;perimeter=parallelogramPerimeter;whiteSpace=wrap;rounded=1;arcSize=12;size=0.23;" parent="1" vertex="1">
          <mxGeometry x="930" y="490" width="100" height="60" as="geometry" />
        </mxCell>
        <mxCell id="vFlg7M4hYeE5aYaz60vm-251" value="" style="edgeStyle=orthogonalEdgeStyle;rounded=0;orthogonalLoop=1;jettySize=auto;html=1;" parent="1" source="vFlg7M4hYeE5aYaz60vm-252" target="vFlg7M4hYeE5aYaz60vm-254" edge="1">
          <mxGeometry relative="1" as="geometry" />
        </mxCell>
        <mxCell id="vFlg7M4hYeE5aYaz60vm-252" value="Confirm Password" style="whiteSpace=wrap;html=1;strokeWidth=2;rounded=1;arcSize=12;" parent="1" vertex="1">
          <mxGeometry x="1100" y="490" width="120" height="60" as="geometry" />
        </mxCell>
        <mxCell id="vFlg7M4hYeE5aYaz60vm-253" value="" style="edgeStyle=orthogonalEdgeStyle;rounded=0;orthogonalLoop=1;jettySize=auto;html=1;" parent="1" source="vFlg7M4hYeE5aYaz60vm-254" target="vFlg7M4hYeE5aYaz60vm-256" edge="1">
          <mxGeometry relative="1" as="geometry" />
        </mxCell>
        <mxCell id="vFlg7M4hYeE5aYaz60vm-254" value="Send Verification Link to Email" style="rounded=1;whiteSpace=wrap;html=1;strokeWidth=2;arcSize=12;" parent="1" vertex="1">
          <mxGeometry x="1100" y="350" width="120" height="60" as="geometry" />
        </mxCell>
        <mxCell id="vFlg7M4hYeE5aYaz60vm-255" value="" style="edgeStyle=orthogonalEdgeStyle;rounded=0;orthogonalLoop=1;jettySize=auto;html=1;" parent="1" source="vFlg7M4hYeE5aYaz60vm-256" target="vFlg7M4hYeE5aYaz60vm-258" edge="1">
          <mxGeometry relative="1" as="geometry" />
        </mxCell>
        <mxCell id="vFlg7M4hYeE5aYaz60vm-256" value="Check Email" style="whiteSpace=wrap;html=1;rounded=1;strokeWidth=2;arcSize=12;" parent="1" vertex="1">
          <mxGeometry x="1300" y="350" width="120" height="60" as="geometry" />
        </mxCell>
        <mxCell id="vFlg7M4hYeE5aYaz60vm-257" value="" style="edgeStyle=orthogonalEdgeStyle;rounded=0;orthogonalLoop=1;jettySize=auto;html=1;" parent="1" source="vFlg7M4hYeE5aYaz60vm-258" target="vFlg7M4hYeE5aYaz60vm-262" edge="1">
          <mxGeometry relative="1" as="geometry" />
        </mxCell>
        <mxCell id="vFlg7M4hYeE5aYaz60vm-258" value="Click Verification Link" style="shape=parallelogram;perimeter=parallelogramPerimeter;whiteSpace=wrap;html=1;fixedSize=1;rounded=1;strokeWidth=2;arcSize=12;" parent="1" vertex="1">
          <mxGeometry x="1500" y="350" width="160" height="60" as="geometry" />
        </mxCell>
        <mxCell id="vFlg7M4hYeE5aYaz60vm-259" value="" style="edgeStyle=orthogonalEdgeStyle;rounded=0;orthogonalLoop=1;jettySize=auto;html=1;" parent="1" source="vFlg7M4hYeE5aYaz60vm-260" target="vFlg7M4hYeE5aYaz60vm-267" edge="1">
          <mxGeometry relative="1" as="geometry" />
        </mxCell>
        <mxCell id="vFlg7M4hYeE5aYaz60vm-260" value="Login" style="whiteSpace=wrap;html=1;strokeWidth=2;" parent="1" vertex="1">
          <mxGeometry x="179.99806451612903" y="490" width="120" height="60" as="geometry" />
        </mxCell>
        <mxCell id="vFlg7M4hYeE5aYaz60vm-261" style="edgeStyle=orthogonalEdgeStyle;rounded=0;orthogonalLoop=1;jettySize=auto;html=1;" parent="1" source="vFlg7M4hYeE5aYaz60vm-262" target="vFlg7M4hYeE5aYaz60vm-260" edge="1">
          <mxGeometry relative="1" as="geometry">
            <Array as="points">
              <mxPoint x="1820" y="130" />
              <mxPoint x="240" y="130" />
            </Array>
          </mxGeometry>
        </mxCell>
        <mxCell id="vFlg7M4hYeE5aYaz60vm-262" value="Email verified = Success" style="whiteSpace=wrap;html=1;rounded=1;strokeWidth=2;arcSize=12;" parent="1" vertex="1">
          <mxGeometry x="1760" y="350" width="120" height="60" as="geometry" />
        </mxCell>
        <mxCell id="vFlg7M4hYeE5aYaz60vm-263" value="" style="edgeStyle=orthogonalEdgeStyle;rounded=0;orthogonalLoop=1;jettySize=auto;html=1;" parent="1" source="vFlg7M4hYeE5aYaz60vm-267" target="vFlg7M4hYeE5aYaz60vm-269" edge="1">
          <mxGeometry relative="1" as="geometry" />
        </mxCell>
        <mxCell id="vFlg7M4hYeE5aYaz60vm-264" value="NO" style="edgeLabel;html=1;align=center;verticalAlign=middle;resizable=0;points=[];" parent="vFlg7M4hYeE5aYaz60vm-263" vertex="1" connectable="0">
          <mxGeometry x="-0.2487" y="-4" relative="1" as="geometry">
            <mxPoint as="offset" />
          </mxGeometry>
        </mxCell>
        <mxCell id="vFlg7M4hYeE5aYaz60vm-265" value="" style="edgeStyle=orthogonalEdgeStyle;rounded=0;orthogonalLoop=1;jettySize=auto;html=1;" parent="1" source="vFlg7M4hYeE5aYaz60vm-267" target="vFlg7M4hYeE5aYaz60vm-280" edge="1">
          <mxGeometry relative="1" as="geometry" />
        </mxCell>
        <mxCell id="vFlg7M4hYeE5aYaz60vm-266" value="YES" style="edgeLabel;html=1;align=center;verticalAlign=middle;resizable=0;points=[];" parent="vFlg7M4hYeE5aYaz60vm-265" vertex="1" connectable="0">
          <mxGeometry x="-0.4468" y="1" relative="1" as="geometry">
            <mxPoint as="offset" />
          </mxGeometry>
        </mxCell>
        <mxCell id="vFlg7M4hYeE5aYaz60vm-267" value="Forgot Password?" style="rhombus;whiteSpace=wrap;html=1;strokeWidth=2;" parent="1" vertex="1">
          <mxGeometry x="170" y="620" width="140" height="110" as="geometry" />
        </mxCell>
        <mxCell id="vFlg7M4hYeE5aYaz60vm-268" value="" style="edgeStyle=orthogonalEdgeStyle;rounded=0;orthogonalLoop=1;jettySize=auto;html=1;" parent="1" source="vFlg7M4hYeE5aYaz60vm-269" target="vFlg7M4hYeE5aYaz60vm-271" edge="1">
          <mxGeometry relative="1" as="geometry" />
        </mxCell>
        <mxCell id="vFlg7M4hYeE5aYaz60vm-269" value="Input Email Address" style="shape=parallelogram;perimeter=parallelogramPerimeter;whiteSpace=wrap;html=1;fixedSize=1;strokeWidth=2;" parent="1" vertex="1">
          <mxGeometry x="400" y="645" width="160" height="60" as="geometry" />
        </mxCell>
        <mxCell id="vFlg7M4hYeE5aYaz60vm-270" value="" style="edgeStyle=orthogonalEdgeStyle;rounded=0;orthogonalLoop=1;jettySize=auto;html=1;" parent="1" source="vFlg7M4hYeE5aYaz60vm-271" target="vFlg7M4hYeE5aYaz60vm-276" edge="1">
          <mxGeometry relative="1" as="geometry" />
        </mxCell>
        <mxCell id="vFlg7M4hYeE5aYaz60vm-271" value="Input Password" style="shape=parallelogram;perimeter=parallelogramPerimeter;whiteSpace=wrap;html=1;fixedSize=1;strokeWidth=2;" parent="1" vertex="1">
          <mxGeometry x="640" y="645" width="160" height="60" as="geometry" />
        </mxCell>
        <mxCell id="vFlg7M4hYeE5aYaz60vm-272" value="" style="edgeStyle=orthogonalEdgeStyle;rounded=0;orthogonalLoop=1;jettySize=auto;html=1;" parent="1" source="vFlg7M4hYeE5aYaz60vm-276" target="vFlg7M4hYeE5aYaz60vm-278" edge="1">
          <mxGeometry relative="1" as="geometry" />
        </mxCell>
        <mxCell id="vFlg7M4hYeE5aYaz60vm-273" value="YES" style="edgeLabel;html=1;align=center;verticalAlign=middle;resizable=0;points=[];" parent="vFlg7M4hYeE5aYaz60vm-272" vertex="1" connectable="0">
          <mxGeometry x="-0.2271" y="3" relative="1" as="geometry">
            <mxPoint as="offset" />
          </mxGeometry>
        </mxCell>
        <mxCell id="vFlg7M4hYeE5aYaz60vm-274" value="N" style="edgeStyle=orthogonalEdgeStyle;rounded=0;orthogonalLoop=1;jettySize=auto;html=1;" parent="1" source="vFlg7M4hYeE5aYaz60vm-276" target="vFlg7M4hYeE5aYaz60vm-260" edge="1">
          <mxGeometry relative="1" as="geometry">
            <Array as="points">
              <mxPoint x="960" y="830" />
              <mxPoint x="960" y="1540" />
              <mxPoint x="10" y="1540" />
              <mxPoint x="10" y="520" />
            </Array>
          </mxGeometry>
        </mxCell>
        <mxCell id="vFlg7M4hYeE5aYaz60vm-275" value="NO" style="edgeLabel;html=1;align=center;verticalAlign=middle;resizable=0;points=[];" parent="vFlg7M4hYeE5aYaz60vm-274" vertex="1" connectable="0">
          <mxGeometry x="-0.9391" y="2" relative="1" as="geometry">
            <mxPoint y="-1" as="offset" />
          </mxGeometry>
        </mxCell>
        <mxCell id="vFlg7M4hYeE5aYaz60vm-276" value="Is the Password and Email Correct?" style="rhombus;whiteSpace=wrap;html=1;strokeWidth=2;" parent="1" vertex="1">
          <mxGeometry x="890" y="605" width="140" height="140" as="geometry" />
        </mxCell>
        <mxCell id="vFlg7M4hYeE5aYaz60vm-277" value="" style="edgeStyle=orthogonalEdgeStyle;rounded=0;orthogonalLoop=1;jettySize=auto;html=1;" parent="1" source="vFlg7M4hYeE5aYaz60vm-278" target="vFlg7M4hYeE5aYaz60vm-297" edge="1">
          <mxGeometry relative="1" as="geometry" />
        </mxCell>
        <mxCell id="vFlg7M4hYeE5aYaz60vm-278" value="Account Dashboard" style="whiteSpace=wrap;html=1;strokeWidth=2;" parent="1" vertex="1">
          <mxGeometry x="1260" y="645" width="120" height="60" as="geometry" />
        </mxCell>
        <mxCell id="vFlg7M4hYeE5aYaz60vm-279" value="" style="edgeStyle=orthogonalEdgeStyle;rounded=0;orthogonalLoop=1;jettySize=auto;html=1;" parent="1" source="vFlg7M4hYeE5aYaz60vm-280" target="vFlg7M4hYeE5aYaz60vm-282" edge="1">
          <mxGeometry relative="1" as="geometry" />
        </mxCell>
        <mxCell id="vFlg7M4hYeE5aYaz60vm-280" value="Input Email for reset password" style="shape=parallelogram;perimeter=parallelogramPerimeter;whiteSpace=wrap;html=1;fixedSize=1;strokeWidth=2;" parent="1" vertex="1">
          <mxGeometry x="180" y="835" width="120" height="60" as="geometry" />
        </mxCell>
        <mxCell id="vFlg7M4hYeE5aYaz60vm-281" value="" style="edgeStyle=orthogonalEdgeStyle;rounded=0;orthogonalLoop=1;jettySize=auto;html=1;" parent="1" source="vFlg7M4hYeE5aYaz60vm-282" target="vFlg7M4hYeE5aYaz60vm-284" edge="1">
          <mxGeometry relative="1" as="geometry" />
        </mxCell>
        <mxCell id="vFlg7M4hYeE5aYaz60vm-282" value="Send Verification Link to Email" style="whiteSpace=wrap;html=1;strokeWidth=2;" parent="1" vertex="1">
          <mxGeometry x="380" y="835" width="120" height="60" as="geometry" />
        </mxCell>
        <mxCell id="vFlg7M4hYeE5aYaz60vm-283" value="" style="edgeStyle=orthogonalEdgeStyle;rounded=0;orthogonalLoop=1;jettySize=auto;html=1;" parent="1" source="vFlg7M4hYeE5aYaz60vm-284" target="vFlg7M4hYeE5aYaz60vm-286" edge="1">
          <mxGeometry relative="1" as="geometry" />
        </mxCell>
        <mxCell id="vFlg7M4hYeE5aYaz60vm-284" value="Send Verification Link to Email" style="whiteSpace=wrap;html=1;strokeWidth=2;" parent="1" vertex="1">
          <mxGeometry x="380" y="975" width="120" height="60" as="geometry" />
        </mxCell>
        <mxCell id="vFlg7M4hYeE5aYaz60vm-285" value="" style="edgeStyle=orthogonalEdgeStyle;rounded=0;orthogonalLoop=1;jettySize=auto;html=1;" parent="1" source="vFlg7M4hYeE5aYaz60vm-286" target="vFlg7M4hYeE5aYaz60vm-288" edge="1">
          <mxGeometry relative="1" as="geometry" />
        </mxCell>
        <mxCell id="vFlg7M4hYeE5aYaz60vm-286" value="Check Email" style="whiteSpace=wrap;html=1;strokeWidth=2;" parent="1" vertex="1">
          <mxGeometry x="380" y="1115" width="120" height="60" as="geometry" />
        </mxCell>
        <mxCell id="vFlg7M4hYeE5aYaz60vm-287" value="" style="edgeStyle=orthogonalEdgeStyle;rounded=0;orthogonalLoop=1;jettySize=auto;html=1;" parent="1" source="vFlg7M4hYeE5aYaz60vm-288" target="vFlg7M4hYeE5aYaz60vm-290" edge="1">
          <mxGeometry relative="1" as="geometry" />
        </mxCell>
        <mxCell id="vFlg7M4hYeE5aYaz60vm-288" value="Click Verification Link" style="shape=parallelogram;perimeter=parallelogramPerimeter;whiteSpace=wrap;html=1;fixedSize=1;strokeWidth=2;" parent="1" vertex="1">
          <mxGeometry x="580" y="1115" width="140" height="60" as="geometry" />
        </mxCell>
        <mxCell id="vFlg7M4hYeE5aYaz60vm-289" value="" style="edgeStyle=orthogonalEdgeStyle;rounded=0;orthogonalLoop=1;jettySize=auto;html=1;" parent="1" source="vFlg7M4hYeE5aYaz60vm-290" target="vFlg7M4hYeE5aYaz60vm-292" edge="1">
          <mxGeometry relative="1" as="geometry" />
        </mxCell>
        <mxCell id="vFlg7M4hYeE5aYaz60vm-290" value="Reset Password" style="whiteSpace=wrap;html=1;strokeWidth=2;" parent="1" vertex="1">
          <mxGeometry x="590" y="1255" width="120" height="60" as="geometry" />
        </mxCell>
        <mxCell id="vFlg7M4hYeE5aYaz60vm-291" value="" style="edgeStyle=orthogonalEdgeStyle;rounded=0;orthogonalLoop=1;jettySize=auto;html=1;" parent="1" source="vFlg7M4hYeE5aYaz60vm-292" target="vFlg7M4hYeE5aYaz60vm-294" edge="1">
          <mxGeometry relative="1" as="geometry" />
        </mxCell>
        <mxCell id="vFlg7M4hYeE5aYaz60vm-292" value="Input new password" style="shape=parallelogram;perimeter=parallelogramPerimeter;whiteSpace=wrap;html=1;fixedSize=1;strokeWidth=2;" parent="1" vertex="1">
          <mxGeometry x="585" y="1400" width="130" height="60" as="geometry" />
        </mxCell>
        <mxCell id="vFlg7M4hYeE5aYaz60vm-293" style="edgeStyle=orthogonalEdgeStyle;rounded=0;orthogonalLoop=1;jettySize=auto;html=1;entryX=0;entryY=0.5;entryDx=0;entryDy=0;" parent="1" source="vFlg7M4hYeE5aYaz60vm-294" target="vFlg7M4hYeE5aYaz60vm-260" edge="1">
          <mxGeometry relative="1" as="geometry">
            <Array as="points">
              <mxPoint x="860" y="1490" />
              <mxPoint x="80" y="1490" />
              <mxPoint x="80" y="520" />
            </Array>
          </mxGeometry>
        </mxCell>
        <mxCell id="vFlg7M4hYeE5aYaz60vm-294" value="Notify User" style="whiteSpace=wrap;html=1;strokeWidth=2;" parent="1" vertex="1">
          <mxGeometry x="800" y="1400" width="120" height="60" as="geometry" />
        </mxCell>
        <mxCell id="vFlg7M4hYeE5aYaz60vm-295" value="" style="edgeStyle=orthogonalEdgeStyle;rounded=0;orthogonalLoop=1;jettySize=auto;html=1;" parent="1" source="vFlg7M4hYeE5aYaz60vm-297" target="vFlg7M4hYeE5aYaz60vm-299" edge="1">
          <mxGeometry relative="1" as="geometry" />
        </mxCell>
        <mxCell id="vFlg7M4hYeE5aYaz60vm-296" value="" style="edgeStyle=orthogonalEdgeStyle;rounded=0;orthogonalLoop=1;jettySize=auto;html=1;" parent="1" source="vFlg7M4hYeE5aYaz60vm-297" target="vFlg7M4hYeE5aYaz60vm-305" edge="1">
          <mxGeometry relative="1" as="geometry" />
        </mxCell>
        <mxCell id="vFlg7M4hYeE5aYaz60vm-297" value="Browse Products or Go to Profile" style="rhombus;whiteSpace=wrap;html=1;strokeWidth=2;" parent="1" vertex="1">
          <mxGeometry x="1500" y="601.25" width="200" height="147.5" as="geometry" />
        </mxCell>
        <mxCell id="vFlg7M4hYeE5aYaz60vm-298" value="" style="edgeStyle=orthogonalEdgeStyle;rounded=0;orthogonalLoop=1;jettySize=auto;html=1;" parent="1" source="vFlg7M4hYeE5aYaz60vm-299" target="vFlg7M4hYeE5aYaz60vm-302" edge="1">
          <mxGeometry relative="1" as="geometry" />
        </mxCell>
        <mxCell id="vFlg7M4hYeE5aYaz60vm-299" value="Profile" style="whiteSpace=wrap;html=1;strokeWidth=2;" parent="1" vertex="1">
          <mxGeometry x="1820" y="645" width="120" height="60" as="geometry" />
        </mxCell>
        <mxCell id="vFlg7M4hYeE5aYaz60vm-300" style="edgeStyle=orthogonalEdgeStyle;rounded=0;orthogonalLoop=1;jettySize=auto;html=1;" parent="1" source="vFlg7M4hYeE5aYaz60vm-344" target="vFlg7M4hYeE5aYaz60vm-278" edge="1">
          <mxGeometry relative="1" as="geometry">
            <mxPoint x="2360" y="330" as="sourcePoint" />
            <Array as="points">
              <mxPoint x="2685" y="310" />
              <mxPoint x="2080" y="310" />
              <mxPoint x="2080" y="540" />
              <mxPoint x="1320" y="540" />
            </Array>
          </mxGeometry>
        </mxCell>
        <mxCell id="vFlg7M4hYeE5aYaz60vm-301" value="" style="edgeStyle=orthogonalEdgeStyle;rounded=0;orthogonalLoop=1;jettySize=auto;html=1;" parent="1" source="vFlg7M4hYeE5aYaz60vm-302" target="vFlg7M4hYeE5aYaz60vm-338" edge="1">
          <mxGeometry relative="1" as="geometry" />
        </mxCell>
        <mxCell id="vFlg7M4hYeE5aYaz60vm-302" value="Edit Profile" style="whiteSpace=wrap;html=1;strokeWidth=2;" parent="1" vertex="1">
          <mxGeometry x="2020" y="645" width="120" height="60" as="geometry" />
        </mxCell>
        <mxCell id="vFlg7M4hYeE5aYaz60vm-303" value="" style="edgeStyle=orthogonalEdgeStyle;rounded=0;orthogonalLoop=1;jettySize=auto;html=1;" parent="1" source="vFlg7M4hYeE5aYaz60vm-305" target="vFlg7M4hYeE5aYaz60vm-307" edge="1">
          <mxGeometry relative="1" as="geometry" />
        </mxCell>
        <mxCell id="vFlg7M4hYeE5aYaz60vm-304" value="" style="edgeStyle=orthogonalEdgeStyle;rounded=0;orthogonalLoop=1;jettySize=auto;html=1;" parent="1" source="vFlg7M4hYeE5aYaz60vm-305" target="vFlg7M4hYeE5aYaz60vm-312" edge="1">
          <mxGeometry relative="1" as="geometry" />
        </mxCell>
        <mxCell id="vFlg7M4hYeE5aYaz60vm-305" value="Browse by Category or Search Products" style="rhombus;whiteSpace=wrap;html=1;strokeWidth=2;" parent="1" vertex="1">
          <mxGeometry x="1525" y="816.25" width="150" height="140" as="geometry" />
        </mxCell>
        <mxCell id="vFlg7M4hYeE5aYaz60vm-306" value="" style="edgeStyle=orthogonalEdgeStyle;rounded=0;orthogonalLoop=1;jettySize=auto;html=1;" parent="1" source="vFlg7M4hYeE5aYaz60vm-307" target="vFlg7M4hYeE5aYaz60vm-310" edge="1">
          <mxGeometry relative="1" as="geometry" />
        </mxCell>
        <mxCell id="vFlg7M4hYeE5aYaz60vm-307" value="Browse Product" style="whiteSpace=wrap;html=1;strokeWidth=2;" parent="1" vertex="1">
          <mxGeometry x="1290" y="856.25" width="120" height="60" as="geometry" />
        </mxCell>
        <mxCell id="vFlg7M4hYeE5aYaz60vm-308" value="" style="edgeStyle=orthogonalEdgeStyle;rounded=0;orthogonalLoop=1;jettySize=auto;html=1;" parent="1" source="vFlg7M4hYeE5aYaz60vm-310" target="vFlg7M4hYeE5aYaz60vm-319" edge="1">
          <mxGeometry relative="1" as="geometry" />
        </mxCell>
        <mxCell id="vFlg7M4hYeE5aYaz60vm-309" value="" style="edgeStyle=orthogonalEdgeStyle;rounded=0;orthogonalLoop=1;jettySize=auto;html=1;" parent="1" source="vFlg7M4hYeE5aYaz60vm-310" target="vFlg7M4hYeE5aYaz60vm-321" edge="1">
          <mxGeometry relative="1" as="geometry" />
        </mxCell>
        <mxCell id="vFlg7M4hYeE5aYaz60vm-310" value="View Product Details" style="whiteSpace=wrap;html=1;strokeWidth=2;" parent="1" vertex="1">
          <mxGeometry x="1290" y="1062.51" width="120" height="60" as="geometry" />
        </mxCell>
        <mxCell id="vFlg7M4hYeE5aYaz60vm-311" value="" style="edgeStyle=orthogonalEdgeStyle;rounded=0;orthogonalLoop=1;jettySize=auto;html=1;" parent="1" source="vFlg7M4hYeE5aYaz60vm-312" target="vFlg7M4hYeE5aYaz60vm-315" edge="1">
          <mxGeometry relative="1" as="geometry" />
        </mxCell>
        <mxCell id="vFlg7M4hYeE5aYaz60vm-312" value="Input Search Term" style="shape=parallelogram;perimeter=parallelogramPerimeter;whiteSpace=wrap;html=1;fixedSize=1;strokeWidth=2;" parent="1" vertex="1">
          <mxGeometry x="1760" y="856.25" width="220" height="60" as="geometry" />
        </mxCell>
        <mxCell id="vFlg7M4hYeE5aYaz60vm-313" value="" style="edgeStyle=orthogonalEdgeStyle;rounded=0;orthogonalLoop=1;jettySize=auto;html=1;" parent="1" source="vFlg7M4hYeE5aYaz60vm-315" target="vFlg7M4hYeE5aYaz60vm-317" edge="1">
          <mxGeometry relative="1" as="geometry" />
        </mxCell>
        <mxCell id="vFlg7M4hYeE5aYaz60vm-314" value="" style="edgeStyle=orthogonalEdgeStyle;rounded=0;orthogonalLoop=1;jettySize=auto;html=1;" parent="1" source="vFlg7M4hYeE5aYaz60vm-315" target="vFlg7M4hYeE5aYaz60vm-318" edge="1">
          <mxGeometry relative="1" as="geometry" />
        </mxCell>
        <mxCell id="vFlg7M4hYeE5aYaz60vm-315" value="Apply Filters?" style="rhombus;whiteSpace=wrap;html=1;strokeWidth=2;" parent="1" vertex="1">
          <mxGeometry x="2090" y="823.13" width="130" height="126.25" as="geometry" />
        </mxCell>
        <mxCell id="vFlg7M4hYeE5aYaz60vm-316" style="edgeStyle=orthogonalEdgeStyle;rounded=0;orthogonalLoop=1;jettySize=auto;html=1;" parent="1" source="vFlg7M4hYeE5aYaz60vm-317" target="vFlg7M4hYeE5aYaz60vm-310" edge="1">
          <mxGeometry relative="1" as="geometry" />
        </mxCell>
        <mxCell id="vFlg7M4hYeE5aYaz60vm-317" value="View Search Results" style="whiteSpace=wrap;html=1;strokeWidth=2;" parent="1" vertex="1">
          <mxGeometry x="2095" y="1062.505" width="120" height="60" as="geometry" />
        </mxCell>
        <mxCell id="vFlg7M4hYeE5aYaz60vm-318" value="Filter by Price, Category" style="whiteSpace=wrap;html=1;strokeWidth=2;" parent="1" vertex="1">
          <mxGeometry x="2305" y="856.255" width="120" height="60" as="geometry" />
        </mxCell>
        <mxCell id="vFlg7M4hYeE5aYaz60vm-319" value="View Comments" style="whiteSpace=wrap;html=1;strokeWidth=2;" parent="1" vertex="1">
          <mxGeometry x="1090" y="1062.51" width="120" height="60" as="geometry" />
        </mxCell>
        <mxCell id="vFlg7M4hYeE5aYaz60vm-320" value="" style="edgeStyle=orthogonalEdgeStyle;rounded=0;orthogonalLoop=1;jettySize=auto;html=1;" parent="1" source="vFlg7M4hYeE5aYaz60vm-321" target="vFlg7M4hYeE5aYaz60vm-323" edge="1">
          <mxGeometry relative="1" as="geometry" />
        </mxCell>
        <mxCell id="vFlg7M4hYeE5aYaz60vm-321" value="Add to Cart" style="whiteSpace=wrap;html=1;strokeWidth=2;" parent="1" vertex="1">
          <mxGeometry x="1290" y="1202.51" width="120" height="60" as="geometry" />
        </mxCell>
        <mxCell id="vFlg7M4hYeE5aYaz60vm-322" value="" style="edgeStyle=orthogonalEdgeStyle;rounded=0;orthogonalLoop=1;jettySize=auto;html=1;" parent="1" source="vFlg7M4hYeE5aYaz60vm-323" target="vFlg7M4hYeE5aYaz60vm-325" edge="1">
          <mxGeometry relative="1" as="geometry" />
        </mxCell>
        <mxCell id="vFlg7M4hYeE5aYaz60vm-323" value="Select Variations" style="whiteSpace=wrap;html=1;strokeWidth=2;" parent="1" vertex="1">
          <mxGeometry x="1290" y="1342.51" width="120" height="60" as="geometry" />
        </mxCell>
        <mxCell id="vFlg7M4hYeE5aYaz60vm-324" value="" style="edgeStyle=orthogonalEdgeStyle;rounded=0;orthogonalLoop=1;jettySize=auto;html=1;" parent="1" source="vFlg7M4hYeE5aYaz60vm-325" target="vFlg7M4hYeE5aYaz60vm-327" edge="1">
          <mxGeometry relative="1" as="geometry" />
        </mxCell>
        <mxCell id="vFlg7M4hYeE5aYaz60vm-325" value="Change Quantity" style="whiteSpace=wrap;html=1;strokeWidth=2;" parent="1" vertex="1">
          <mxGeometry x="1290" y="1490" width="120" height="60" as="geometry" />
        </mxCell>
        <mxCell id="vFlg7M4hYeE5aYaz60vm-326" value="" style="edgeStyle=orthogonalEdgeStyle;rounded=0;orthogonalLoop=1;jettySize=auto;html=1;" parent="1" source="vFlg7M4hYeE5aYaz60vm-327" target="vFlg7M4hYeE5aYaz60vm-329" edge="1">
          <mxGeometry relative="1" as="geometry" />
        </mxCell>
        <mxCell id="vFlg7M4hYeE5aYaz60vm-327" value="Review Cart" style="whiteSpace=wrap;html=1;strokeWidth=2;" parent="1" vertex="1">
          <mxGeometry x="1290" y="1640" width="120" height="60" as="geometry" />
        </mxCell>
        <mxCell id="vFlg7M4hYeE5aYaz60vm-328" value="" style="edgeStyle=orthogonalEdgeStyle;rounded=0;orthogonalLoop=1;jettySize=auto;html=1;" parent="1" source="vFlg7M4hYeE5aYaz60vm-329" target="vFlg7M4hYeE5aYaz60vm-346" edge="1">
          <mxGeometry relative="1" as="geometry" />
        </mxCell>
        <mxCell id="vFlg7M4hYeE5aYaz60vm-329" value="Proceed to checkout" style="whiteSpace=wrap;html=1;strokeWidth=2;" parent="1" vertex="1">
          <mxGeometry x="1290" y="1820" width="120" height="60" as="geometry" />
        </mxCell>
        <mxCell id="vFlg7M4hYeE5aYaz60vm-330" value="" style="edgeStyle=orthogonalEdgeStyle;rounded=0;orthogonalLoop=1;jettySize=auto;html=1;" parent="1" source="vFlg7M4hYeE5aYaz60vm-331" target="vFlg7M4hYeE5aYaz60vm-333" edge="1">
          <mxGeometry relative="1" as="geometry" />
        </mxCell>
        <mxCell id="vFlg7M4hYeE5aYaz60vm-331" value="Select Shipping Address" style="whiteSpace=wrap;html=1;strokeWidth=2;" parent="1" vertex="1">
          <mxGeometry x="1290" y="2100.005" width="120" height="60" as="geometry" />
        </mxCell>
        <mxCell id="vFlg7M4hYeE5aYaz60vm-332" value="" style="edgeStyle=orthogonalEdgeStyle;rounded=0;orthogonalLoop=1;jettySize=auto;html=1;" parent="1" source="vFlg7M4hYeE5aYaz60vm-333" target="vFlg7M4hYeE5aYaz60vm-348" edge="1">
          <mxGeometry relative="1" as="geometry" />
        </mxCell>
        <mxCell id="vFlg7M4hYeE5aYaz60vm-333" value="Select Payment Method" style="whiteSpace=wrap;html=1;strokeWidth=2;" parent="1" vertex="1">
          <mxGeometry x="1290" y="2250.005" width="120" height="60" as="geometry" />
        </mxCell>
        <mxCell id="vFlg7M4hYeE5aYaz60vm-334" value="" style="edgeStyle=orthogonalEdgeStyle;rounded=0;orthogonalLoop=1;jettySize=auto;html=1;" parent="1" source="vFlg7M4hYeE5aYaz60vm-338" target="vFlg7M4hYeE5aYaz60vm-340" edge="1">
          <mxGeometry relative="1" as="geometry" />
        </mxCell>
        <mxCell id="vFlg7M4hYeE5aYaz60vm-335" value="YES" style="edgeLabel;html=1;align=center;verticalAlign=middle;resizable=0;points=[];" parent="vFlg7M4hYeE5aYaz60vm-334" vertex="1" connectable="0">
          <mxGeometry x="-0.4058" y="3" relative="1" as="geometry">
            <mxPoint as="offset" />
          </mxGeometry>
        </mxCell>
        <mxCell id="vFlg7M4hYeE5aYaz60vm-336" value="" style="edgeStyle=orthogonalEdgeStyle;rounded=0;orthogonalLoop=1;jettySize=auto;html=1;" parent="1" source="vFlg7M4hYeE5aYaz60vm-338" target="vFlg7M4hYeE5aYaz60vm-343" edge="1">
          <mxGeometry relative="1" as="geometry" />
        </mxCell>
        <mxCell id="vFlg7M4hYeE5aYaz60vm-337" value="NO" style="edgeLabel;html=1;align=center;verticalAlign=middle;resizable=0;points=[];" parent="vFlg7M4hYeE5aYaz60vm-336" vertex="1" connectable="0">
          <mxGeometry x="-0.1574" relative="1" as="geometry">
            <mxPoint as="offset" />
          </mxGeometry>
        </mxCell>
        <mxCell id="vFlg7M4hYeE5aYaz60vm-338" value="Upload Valid ID?" style="rhombus;whiteSpace=wrap;html=1;strokeWidth=2;" parent="1" vertex="1">
          <mxGeometry x="2240" y="627.5" width="100" height="95" as="geometry" />
        </mxCell>
        <mxCell id="vFlg7M4hYeE5aYaz60vm-339" value="" style="edgeStyle=orthogonalEdgeStyle;rounded=0;orthogonalLoop=1;jettySize=auto;html=1;" parent="1" source="vFlg7M4hYeE5aYaz60vm-340" target="vFlg7M4hYeE5aYaz60vm-341" edge="1">
          <mxGeometry relative="1" as="geometry" />
        </mxCell>
        <mxCell id="vFlg7M4hYeE5aYaz60vm-340" value="Verify ID" style="whiteSpace=wrap;html=1;strokeWidth=2;" parent="1" vertex="1">
          <mxGeometry x="2230" y="490" width="120" height="60" as="geometry" />
        </mxCell>
        <mxCell id="vFlg7M4hYeE5aYaz60vm-341" value="Discounted for every purchase" style="whiteSpace=wrap;html=1;strokeWidth=2;" parent="1" vertex="1">
          <mxGeometry x="2230" y="350" width="120" height="60" as="geometry" />
        </mxCell>
        <mxCell id="vFlg7M4hYeE5aYaz60vm-342" value="" style="edgeStyle=orthogonalEdgeStyle;rounded=0;orthogonalLoop=1;jettySize=auto;html=1;" parent="1" source="vFlg7M4hYeE5aYaz60vm-343" target="vFlg7M4hYeE5aYaz60vm-344" edge="1">
          <mxGeometry relative="1" as="geometry" />
        </mxCell>
        <mxCell id="vFlg7M4hYeE5aYaz60vm-343" value="Add Shipping Address" style="whiteSpace=wrap;html=1;strokeWidth=2;" parent="1" vertex="1">
          <mxGeometry x="2425" y="645" width="120" height="60" as="geometry" />
        </mxCell>
        <mxCell id="vFlg7M4hYeE5aYaz60vm-344" value="Update Payment Method" style="whiteSpace=wrap;html=1;strokeWidth=2;" parent="1" vertex="1">
          <mxGeometry x="2625" y="645" width="120" height="60" as="geometry" />
        </mxCell>
        <mxCell id="vFlg7M4hYeE5aYaz60vm-345" style="edgeStyle=orthogonalEdgeStyle;rounded=0;orthogonalLoop=1;jettySize=auto;html=1;" parent="1" source="vFlg7M4hYeE5aYaz60vm-346" target="vFlg7M4hYeE5aYaz60vm-331" edge="1">
          <mxGeometry relative="1" as="geometry" />
        </mxCell>
        <mxCell id="vFlg7M4hYeE5aYaz60vm-346" value="Discount Applied" style="whiteSpace=wrap;html=1;strokeWidth=2;" parent="1" vertex="1">
          <mxGeometry x="1290" y="1940" width="120" height="60" as="geometry" />
        </mxCell>
        <mxCell id="vFlg7M4hYeE5aYaz60vm-347" value="" style="edgeStyle=orthogonalEdgeStyle;rounded=0;orthogonalLoop=1;jettySize=auto;html=1;" parent="1" source="vFlg7M4hYeE5aYaz60vm-348" target="vFlg7M4hYeE5aYaz60vm-350" edge="1">
          <mxGeometry relative="1" as="geometry" />
        </mxCell>
        <mxCell id="vFlg7M4hYeE5aYaz60vm-348" value="Complete Purchase" style="whiteSpace=wrap;html=1;strokeWidth=2;" parent="1" vertex="1">
          <mxGeometry x="1290" y="2399.995" width="120" height="60" as="geometry" />
        </mxCell>
        <mxCell id="vFlg7M4hYeE5aYaz60vm-349" value="" style="edgeStyle=orthogonalEdgeStyle;rounded=0;orthogonalLoop=1;jettySize=auto;html=1;" parent="1" source="vFlg7M4hYeE5aYaz60vm-350" target="vFlg7M4hYeE5aYaz60vm-353" edge="1">
          <mxGeometry relative="1" as="geometry" />
        </mxCell>
        <mxCell id="vFlg7M4hYeE5aYaz60vm-350" value="Send&amp;nbsp; confirmation to email" style="whiteSpace=wrap;html=1;strokeWidth=2;" parent="1" vertex="1">
          <mxGeometry x="1290" y="2560.005" width="120" height="60" as="geometry" />
        </mxCell>
        <mxCell id="vFlg7M4hYeE5aYaz60vm-351" value="" style="edgeStyle=orthogonalEdgeStyle;rounded=0;orthogonalLoop=1;jettySize=auto;html=1;" parent="1" source="vFlg7M4hYeE5aYaz60vm-353" target="vFlg7M4hYeE5aYaz60vm-355" edge="1">
          <mxGeometry relative="1" as="geometry" />
        </mxCell>
        <mxCell id="vFlg7M4hYeE5aYaz60vm-352" value="" style="edgeStyle=orthogonalEdgeStyle;rounded=0;orthogonalLoop=1;jettySize=auto;html=1;" parent="1" source="vFlg7M4hYeE5aYaz60vm-353" target="vFlg7M4hYeE5aYaz60vm-356" edge="1">
          <mxGeometry relative="1" as="geometry" />
        </mxCell>
        <mxCell id="vFlg7M4hYeE5aYaz60vm-353" value="Track Order" style="whiteSpace=wrap;html=1;strokeWidth=2;" parent="1" vertex="1">
          <mxGeometry x="1290" y="2700.005" width="120" height="60" as="geometry" />
        </mxCell>
        <mxCell id="vFlg7M4hYeE5aYaz60vm-354" value="" style="edgeStyle=orthogonalEdgeStyle;rounded=0;orthogonalLoop=1;jettySize=auto;html=1;" parent="1" source="vFlg7M4hYeE5aYaz60vm-355" target="vFlg7M4hYeE5aYaz60vm-358" edge="1">
          <mxGeometry relative="1" as="geometry" />
        </mxCell>
        <mxCell id="vFlg7M4hYeE5aYaz60vm-355" value="Receive notifications" style="whiteSpace=wrap;html=1;strokeWidth=2;" parent="1" vertex="1">
          <mxGeometry x="1290" y="2840.005" width="120" height="60" as="geometry" />
        </mxCell>
        <mxCell id="vFlg7M4hYeE5aYaz60vm-356" value="View Order History" style="whiteSpace=wrap;html=1;strokeWidth=2;" parent="1" vertex="1">
          <mxGeometry x="1530" y="2700.005" width="120" height="60" as="geometry" />
        </mxCell>
        <mxCell id="vFlg7M4hYeE5aYaz60vm-357" value="" style="edgeStyle=orthogonalEdgeStyle;rounded=0;orthogonalLoop=1;jettySize=auto;html=1;" parent="1" source="vFlg7M4hYeE5aYaz60vm-358" target="vFlg7M4hYeE5aYaz60vm-362" edge="1">
          <mxGeometry relative="1" as="geometry" />
        </mxCell>
        <mxCell id="vFlg7M4hYeE5aYaz60vm-358" value="Order Delivered" style="whiteSpace=wrap;html=1;strokeWidth=2;" parent="1" vertex="1">
          <mxGeometry x="1290" y="2980.005" width="120" height="60" as="geometry" />
        </mxCell>
        <mxCell id="vFlg7M4hYeE5aYaz60vm-359" value="" style="edgeStyle=orthogonalEdgeStyle;rounded=0;orthogonalLoop=1;jettySize=auto;html=1;" parent="1" source="vFlg7M4hYeE5aYaz60vm-362" target="vFlg7M4hYeE5aYaz60vm-364" edge="1">
          <mxGeometry relative="1" as="geometry" />
        </mxCell>
        <mxCell id="vFlg7M4hYeE5aYaz60vm-360" value="NO" style="edgeLabel;html=1;align=center;verticalAlign=middle;resizable=0;points=[];" parent="vFlg7M4hYeE5aYaz60vm-359" vertex="1" connectable="0">
          <mxGeometry x="-0.1423" y="-4" relative="1" as="geometry">
            <mxPoint as="offset" />
          </mxGeometry>
        </mxCell>
        <mxCell id="vFlg7M4hYeE5aYaz60vm-361" value="" style="edgeStyle=orthogonalEdgeStyle;rounded=0;orthogonalLoop=1;jettySize=auto;html=1;" parent="1" source="vFlg7M4hYeE5aYaz60vm-362" target="vFlg7M4hYeE5aYaz60vm-368" edge="1">
          <mxGeometry relative="1" as="geometry" />
        </mxCell>
        <mxCell id="vFlg7M4hYeE5aYaz60vm-362" value="Are my orders complete?" style="rhombus;whiteSpace=wrap;html=1;strokeWidth=2;" parent="1" vertex="1">
          <mxGeometry x="1290" y="3110.01" width="120" height="109.99" as="geometry" />
        </mxCell>
        <mxCell id="vFlg7M4hYeE5aYaz60vm-363" value="" style="edgeStyle=orthogonalEdgeStyle;rounded=0;orthogonalLoop=1;jettySize=auto;html=1;" parent="1" source="vFlg7M4hYeE5aYaz60vm-364" target="vFlg7M4hYeE5aYaz60vm-366" edge="1">
          <mxGeometry relative="1" as="geometry" />
        </mxCell>
        <mxCell id="vFlg7M4hYeE5aYaz60vm-364" value="Return" style="whiteSpace=wrap;html=1;strokeWidth=2;" parent="1" vertex="1">
          <mxGeometry x="1490" y="3135.005" width="120" height="60" as="geometry" />
        </mxCell>
        <mxCell id="vFlg7M4hYeE5aYaz60vm-365" style="edgeStyle=orthogonalEdgeStyle;rounded=0;orthogonalLoop=1;jettySize=auto;html=1;" parent="1" source="vFlg7M4hYeE5aYaz60vm-366" target="vFlg7M4hYeE5aYaz60vm-370" edge="1">
          <mxGeometry relative="1" as="geometry" />
        </mxCell>
        <mxCell id="vFlg7M4hYeE5aYaz60vm-366" value="Refund or Replace" style="whiteSpace=wrap;html=1;strokeWidth=2;" parent="1" vertex="1">
          <mxGeometry x="1690" y="3135.005" width="120" height="60" as="geometry" />
        </mxCell>
        <mxCell id="vFlg7M4hYeE5aYaz60vm-367" style="edgeStyle=orthogonalEdgeStyle;rounded=0;orthogonalLoop=1;jettySize=auto;html=1;" parent="1" source="vFlg7M4hYeE5aYaz60vm-368" target="vFlg7M4hYeE5aYaz60vm-369" edge="1">
          <mxGeometry relative="1" as="geometry" />
        </mxCell>
        <mxCell id="vFlg7M4hYeE5aYaz60vm-368" value="Feedback" style="whiteSpace=wrap;html=1;strokeWidth=2;" parent="1" vertex="1">
          <mxGeometry x="1290" y="3324.995" width="120" height="60" as="geometry" />
        </mxCell>
        <mxCell id="vFlg7M4hYeE5aYaz60vm-369" value="End" style="strokeWidth=2;html=1;shape=mxgraph.flowchart.start_1;whiteSpace=wrap;" parent="1" vertex="1">
          <mxGeometry x="1300" y="3420" width="100" height="60" as="geometry" />
        </mxCell>
        <mxCell id="vFlg7M4hYeE5aYaz60vm-370" value="End" style="strokeWidth=2;html=1;shape=mxgraph.flowchart.start_1;whiteSpace=wrap;" parent="1" vertex="1">
          <mxGeometry x="1860" y="3135.01" width="100" height="60" as="geometry" />
        </mxCell>
        <mxCell id="vFlg7M4hYeE5aYaz60vm-620" value="Start" style="strokeWidth=2;html=1;shape=mxgraph.flowchart.start_1;whiteSpace=wrap;" parent="1" vertex="1">
          <mxGeometry x="7920" y="650" width="100" height="60" as="geometry" />
        </mxCell>
        <mxCell id="vFlg7M4hYeE5aYaz60vm-621" value="" style="endArrow=classic;html=1;rounded=0;exitX=0.5;exitY=1;exitDx=0;exitDy=0;exitPerimeter=0;entryX=0.5;entryY=0;entryDx=0;entryDy=0;" parent="1" source="vFlg7M4hYeE5aYaz60vm-620" target="vFlg7M4hYeE5aYaz60vm-623" edge="1">
          <mxGeometry width="50" height="50" relative="1" as="geometry">
            <mxPoint x="7950" y="800" as="sourcePoint" />
            <mxPoint x="7970" y="750" as="targetPoint" />
          </mxGeometry>
        </mxCell>
        <mxCell id="vFlg7M4hYeE5aYaz60vm-622" style="edgeStyle=orthogonalEdgeStyle;rounded=0;orthogonalLoop=1;jettySize=auto;html=1;exitX=0.5;exitY=1;exitDx=0;exitDy=0;" parent="1" source="vFlg7M4hYeE5aYaz60vm-623" target="vFlg7M4hYeE5aYaz60vm-628" edge="1">
          <mxGeometry relative="1" as="geometry">
            <mxPoint x="7970.258064516129" y="910" as="targetPoint" />
          </mxGeometry>
        </mxCell>
        <mxCell id="vFlg7M4hYeE5aYaz60vm-623" value="Customer Registration and Login" style="rounded=1;whiteSpace=wrap;html=1;absoluteArcSize=1;arcSize=14;strokeWidth=2;" parent="1" vertex="1">
          <mxGeometry x="7920" y="750" width="100" height="100" as="geometry" />
        </mxCell>
        <mxCell id="vFlg7M4hYeE5aYaz60vm-624" value="" style="edgeStyle=orthogonalEdgeStyle;rounded=0;orthogonalLoop=1;jettySize=auto;html=1;" parent="1" source="vFlg7M4hYeE5aYaz60vm-628" target="vFlg7M4hYeE5aYaz60vm-630" edge="1">
          <mxGeometry relative="1" as="geometry" />
        </mxCell>
        <mxCell id="vFlg7M4hYeE5aYaz60vm-625" value="NO" style="edgeLabel;html=1;align=center;verticalAlign=middle;resizable=0;points=[];" parent="vFlg7M4hYeE5aYaz60vm-624" vertex="1" connectable="0">
          <mxGeometry x="-0.2821" y="-1" relative="1" as="geometry">
            <mxPoint as="offset" />
          </mxGeometry>
        </mxCell>
        <mxCell id="vFlg7M4hYeE5aYaz60vm-626" value="" style="edgeStyle=orthogonalEdgeStyle;rounded=0;orthogonalLoop=1;jettySize=auto;html=1;" parent="1" source="vFlg7M4hYeE5aYaz60vm-628" target="vFlg7M4hYeE5aYaz60vm-644" edge="1">
          <mxGeometry relative="1" as="geometry" />
        </mxCell>
        <mxCell id="vFlg7M4hYeE5aYaz60vm-627" value="YES" style="edgeLabel;html=1;align=center;verticalAlign=middle;resizable=0;points=[];" parent="vFlg7M4hYeE5aYaz60vm-626" vertex="1" connectable="0">
          <mxGeometry x="-0.0112" relative="1" as="geometry">
            <mxPoint as="offset" />
          </mxGeometry>
        </mxCell>
        <mxCell id="vFlg7M4hYeE5aYaz60vm-628" value="Is the Customer Registered?" style="strokeWidth=2;html=1;shape=mxgraph.flowchart.decision;whiteSpace=wrap;" parent="1" vertex="1">
          <mxGeometry x="7919.998064516129" y="900" width="100" height="100" as="geometry" />
        </mxCell>
        <mxCell id="vFlg7M4hYeE5aYaz60vm-629" style="edgeStyle=orthogonalEdgeStyle;rounded=0;orthogonalLoop=1;jettySize=auto;html=1;" parent="1" source="vFlg7M4hYeE5aYaz60vm-630" target="vFlg7M4hYeE5aYaz60vm-632" edge="1">
          <mxGeometry relative="1" as="geometry">
            <mxPoint x="8260" y="950" as="targetPoint" />
          </mxGeometry>
        </mxCell>
        <mxCell id="vFlg7M4hYeE5aYaz60vm-630" value="Email Registration" style="whiteSpace=wrap;html=1;strokeWidth=2;" parent="1" vertex="1">
          <mxGeometry x="8089.998064516129" y="920" width="120" height="60" as="geometry" />
        </mxCell>
        <mxCell id="vFlg7M4hYeE5aYaz60vm-631" value="" style="edgeStyle=orthogonalEdgeStyle;rounded=0;orthogonalLoop=1;jettySize=auto;html=1;" parent="1" source="vFlg7M4hYeE5aYaz60vm-632" target="vFlg7M4hYeE5aYaz60vm-634" edge="1">
          <mxGeometry relative="1" as="geometry" />
        </mxCell>
        <mxCell id="vFlg7M4hYeE5aYaz60vm-632" value="Input Email" style="shape=parallelogram;html=1;strokeWidth=2;perimeter=parallelogramPerimeter;whiteSpace=wrap;rounded=1;arcSize=12;size=0.23;" parent="1" vertex="1">
          <mxGeometry x="8300" y="920" width="100" height="60" as="geometry" />
        </mxCell>
        <mxCell id="vFlg7M4hYeE5aYaz60vm-633" value="" style="edgeStyle=orthogonalEdgeStyle;rounded=0;orthogonalLoop=1;jettySize=auto;html=1;" parent="1" source="vFlg7M4hYeE5aYaz60vm-634" target="vFlg7M4hYeE5aYaz60vm-636" edge="1">
          <mxGeometry relative="1" as="geometry" />
        </mxCell>
        <mxCell id="vFlg7M4hYeE5aYaz60vm-634" value="Input Password" style="shape=parallelogram;html=1;strokeWidth=2;perimeter=parallelogramPerimeter;whiteSpace=wrap;rounded=1;arcSize=12;size=0.23;" parent="1" vertex="1">
          <mxGeometry x="8480" y="920" width="100" height="60" as="geometry" />
        </mxCell>
        <mxCell id="vFlg7M4hYeE5aYaz60vm-635" value="" style="edgeStyle=orthogonalEdgeStyle;rounded=0;orthogonalLoop=1;jettySize=auto;html=1;" parent="1" source="vFlg7M4hYeE5aYaz60vm-636" target="vFlg7M4hYeE5aYaz60vm-638" edge="1">
          <mxGeometry relative="1" as="geometry" />
        </mxCell>
        <mxCell id="vFlg7M4hYeE5aYaz60vm-636" value="Confirm Password" style="whiteSpace=wrap;html=1;strokeWidth=2;rounded=1;arcSize=12;" parent="1" vertex="1">
          <mxGeometry x="8650" y="920" width="120" height="60" as="geometry" />
        </mxCell>
        <mxCell id="vFlg7M4hYeE5aYaz60vm-637" value="" style="edgeStyle=orthogonalEdgeStyle;rounded=0;orthogonalLoop=1;jettySize=auto;html=1;" parent="1" source="vFlg7M4hYeE5aYaz60vm-638" target="vFlg7M4hYeE5aYaz60vm-640" edge="1">
          <mxGeometry relative="1" as="geometry" />
        </mxCell>
        <mxCell id="vFlg7M4hYeE5aYaz60vm-638" value="Send Verification Link to Email" style="rounded=1;whiteSpace=wrap;html=1;strokeWidth=2;arcSize=12;" parent="1" vertex="1">
          <mxGeometry x="8650" y="780" width="120" height="60" as="geometry" />
        </mxCell>
        <mxCell id="vFlg7M4hYeE5aYaz60vm-639" value="" style="edgeStyle=orthogonalEdgeStyle;rounded=0;orthogonalLoop=1;jettySize=auto;html=1;" parent="1" source="vFlg7M4hYeE5aYaz60vm-640" target="vFlg7M4hYeE5aYaz60vm-642" edge="1">
          <mxGeometry relative="1" as="geometry" />
        </mxCell>
        <mxCell id="vFlg7M4hYeE5aYaz60vm-640" value="Check Email" style="whiteSpace=wrap;html=1;rounded=1;strokeWidth=2;arcSize=12;" parent="1" vertex="1">
          <mxGeometry x="8850" y="780" width="120" height="60" as="geometry" />
        </mxCell>
        <mxCell id="vFlg7M4hYeE5aYaz60vm-641" value="" style="edgeStyle=orthogonalEdgeStyle;rounded=0;orthogonalLoop=1;jettySize=auto;html=1;" parent="1" source="vFlg7M4hYeE5aYaz60vm-642" target="vFlg7M4hYeE5aYaz60vm-646" edge="1">
          <mxGeometry relative="1" as="geometry" />
        </mxCell>
        <mxCell id="vFlg7M4hYeE5aYaz60vm-642" value="Click Verification Link" style="shape=parallelogram;perimeter=parallelogramPerimeter;whiteSpace=wrap;html=1;fixedSize=1;rounded=1;strokeWidth=2;arcSize=12;" parent="1" vertex="1">
          <mxGeometry x="9050" y="780" width="160" height="60" as="geometry" />
        </mxCell>
        <mxCell id="vFlg7M4hYeE5aYaz60vm-643" value="" style="edgeStyle=orthogonalEdgeStyle;rounded=0;orthogonalLoop=1;jettySize=auto;html=1;" parent="1" source="vFlg7M4hYeE5aYaz60vm-644" target="vFlg7M4hYeE5aYaz60vm-651" edge="1">
          <mxGeometry relative="1" as="geometry" />
        </mxCell>
        <mxCell id="vFlg7M4hYeE5aYaz60vm-644" value="Login" style="whiteSpace=wrap;html=1;strokeWidth=2;" parent="1" vertex="1">
          <mxGeometry x="7729.998064516129" y="920" width="120" height="60" as="geometry" />
        </mxCell>
        <mxCell id="vFlg7M4hYeE5aYaz60vm-645" style="edgeStyle=orthogonalEdgeStyle;rounded=0;orthogonalLoop=1;jettySize=auto;html=1;" parent="1" source="vFlg7M4hYeE5aYaz60vm-646" target="vFlg7M4hYeE5aYaz60vm-644" edge="1">
          <mxGeometry relative="1" as="geometry">
            <Array as="points">
              <mxPoint x="9370" y="560" />
              <mxPoint x="7790" y="560" />
            </Array>
          </mxGeometry>
        </mxCell>
        <mxCell id="vFlg7M4hYeE5aYaz60vm-646" value="Email verified = Success" style="whiteSpace=wrap;html=1;rounded=1;strokeWidth=2;arcSize=12;" parent="1" vertex="1">
          <mxGeometry x="9310" y="780" width="120" height="60" as="geometry" />
        </mxCell>
        <mxCell id="vFlg7M4hYeE5aYaz60vm-647" value="" style="edgeStyle=orthogonalEdgeStyle;rounded=0;orthogonalLoop=1;jettySize=auto;html=1;" parent="1" source="vFlg7M4hYeE5aYaz60vm-651" target="vFlg7M4hYeE5aYaz60vm-653" edge="1">
          <mxGeometry relative="1" as="geometry" />
        </mxCell>
        <mxCell id="vFlg7M4hYeE5aYaz60vm-648" value="NO" style="edgeLabel;html=1;align=center;verticalAlign=middle;resizable=0;points=[];" parent="vFlg7M4hYeE5aYaz60vm-647" vertex="1" connectable="0">
          <mxGeometry x="-0.2487" y="-4" relative="1" as="geometry">
            <mxPoint as="offset" />
          </mxGeometry>
        </mxCell>
        <mxCell id="vFlg7M4hYeE5aYaz60vm-649" value="" style="edgeStyle=orthogonalEdgeStyle;rounded=0;orthogonalLoop=1;jettySize=auto;html=1;" parent="1" source="vFlg7M4hYeE5aYaz60vm-651" target="vFlg7M4hYeE5aYaz60vm-664" edge="1">
          <mxGeometry relative="1" as="geometry" />
        </mxCell>
        <mxCell id="vFlg7M4hYeE5aYaz60vm-650" value="YES" style="edgeLabel;html=1;align=center;verticalAlign=middle;resizable=0;points=[];" parent="vFlg7M4hYeE5aYaz60vm-649" vertex="1" connectable="0">
          <mxGeometry x="-0.4468" y="1" relative="1" as="geometry">
            <mxPoint as="offset" />
          </mxGeometry>
        </mxCell>
        <mxCell id="vFlg7M4hYeE5aYaz60vm-651" value="Forgot Password?" style="rhombus;whiteSpace=wrap;html=1;strokeWidth=2;" parent="1" vertex="1">
          <mxGeometry x="7720" y="1050" width="140" height="110" as="geometry" />
        </mxCell>
        <mxCell id="vFlg7M4hYeE5aYaz60vm-652" value="" style="edgeStyle=orthogonalEdgeStyle;rounded=0;orthogonalLoop=1;jettySize=auto;html=1;" parent="1" source="vFlg7M4hYeE5aYaz60vm-653" target="vFlg7M4hYeE5aYaz60vm-655" edge="1">
          <mxGeometry relative="1" as="geometry" />
        </mxCell>
        <mxCell id="vFlg7M4hYeE5aYaz60vm-653" value="Input Email Address" style="shape=parallelogram;perimeter=parallelogramPerimeter;whiteSpace=wrap;html=1;fixedSize=1;strokeWidth=2;" parent="1" vertex="1">
          <mxGeometry x="7950" y="1075" width="160" height="60" as="geometry" />
        </mxCell>
        <mxCell id="vFlg7M4hYeE5aYaz60vm-654" value="" style="edgeStyle=orthogonalEdgeStyle;rounded=0;orthogonalLoop=1;jettySize=auto;html=1;" parent="1" source="vFlg7M4hYeE5aYaz60vm-655" target="vFlg7M4hYeE5aYaz60vm-660" edge="1">
          <mxGeometry relative="1" as="geometry" />
        </mxCell>
        <mxCell id="vFlg7M4hYeE5aYaz60vm-655" value="Input Password" style="shape=parallelogram;perimeter=parallelogramPerimeter;whiteSpace=wrap;html=1;fixedSize=1;strokeWidth=2;" parent="1" vertex="1">
          <mxGeometry x="8190" y="1075" width="160" height="60" as="geometry" />
        </mxCell>
        <mxCell id="vFlg7M4hYeE5aYaz60vm-656" value="" style="edgeStyle=orthogonalEdgeStyle;rounded=0;orthogonalLoop=1;jettySize=auto;html=1;" parent="1" source="vFlg7M4hYeE5aYaz60vm-660" target="vFlg7M4hYeE5aYaz60vm-662" edge="1">
          <mxGeometry relative="1" as="geometry" />
        </mxCell>
        <mxCell id="vFlg7M4hYeE5aYaz60vm-657" value="YES" style="edgeLabel;html=1;align=center;verticalAlign=middle;resizable=0;points=[];" parent="vFlg7M4hYeE5aYaz60vm-656" vertex="1" connectable="0">
          <mxGeometry x="-0.2271" y="3" relative="1" as="geometry">
            <mxPoint as="offset" />
          </mxGeometry>
        </mxCell>
        <mxCell id="vFlg7M4hYeE5aYaz60vm-658" value="N" style="edgeStyle=orthogonalEdgeStyle;rounded=0;orthogonalLoop=1;jettySize=auto;html=1;" parent="1" source="vFlg7M4hYeE5aYaz60vm-660" target="vFlg7M4hYeE5aYaz60vm-644" edge="1">
          <mxGeometry relative="1" as="geometry">
            <Array as="points">
              <mxPoint x="8510" y="1260" />
              <mxPoint x="8510" y="1970" />
              <mxPoint x="7560" y="1970" />
              <mxPoint x="7560" y="950" />
            </Array>
          </mxGeometry>
        </mxCell>
        <mxCell id="vFlg7M4hYeE5aYaz60vm-659" value="NO" style="edgeLabel;html=1;align=center;verticalAlign=middle;resizable=0;points=[];" parent="vFlg7M4hYeE5aYaz60vm-658" vertex="1" connectable="0">
          <mxGeometry x="-0.9391" y="2" relative="1" as="geometry">
            <mxPoint y="-1" as="offset" />
          </mxGeometry>
        </mxCell>
        <mxCell id="vFlg7M4hYeE5aYaz60vm-660" value="Is the Password and Email Correct?" style="rhombus;whiteSpace=wrap;html=1;strokeWidth=2;" parent="1" vertex="1">
          <mxGeometry x="8440" y="1035" width="140" height="140" as="geometry" />
        </mxCell>
        <mxCell id="vFlg7M4hYeE5aYaz60vm-756" value="" style="edgeStyle=orthogonalEdgeStyle;rounded=0;orthogonalLoop=1;jettySize=auto;html=1;" parent="1" source="vFlg7M4hYeE5aYaz60vm-662" target="vFlg7M4hYeE5aYaz60vm-755" edge="1">
          <mxGeometry relative="1" as="geometry" />
        </mxCell>
        <mxCell id="vFlg7M4hYeE5aYaz60vm-767" value="" style="edgeStyle=orthogonalEdgeStyle;rounded=0;orthogonalLoop=1;jettySize=auto;html=1;" parent="1" source="vFlg7M4hYeE5aYaz60vm-662" target="vFlg7M4hYeE5aYaz60vm-766" edge="1">
          <mxGeometry relative="1" as="geometry" />
        </mxCell>
        <mxCell id="vFlg7M4hYeE5aYaz60vm-807" value="" style="edgeStyle=orthogonalEdgeStyle;rounded=0;orthogonalLoop=1;jettySize=auto;html=1;" parent="1" source="vFlg7M4hYeE5aYaz60vm-662" target="vFlg7M4hYeE5aYaz60vm-806" edge="1">
          <mxGeometry relative="1" as="geometry" />
        </mxCell>
        <mxCell id="vFlg7M4hYeE5aYaz60vm-662" value="Account Dashboard" style="whiteSpace=wrap;html=1;strokeWidth=2;" parent="1" vertex="1">
          <mxGeometry x="9040" y="1075" width="120" height="60" as="geometry" />
        </mxCell>
        <mxCell id="vFlg7M4hYeE5aYaz60vm-663" value="" style="edgeStyle=orthogonalEdgeStyle;rounded=0;orthogonalLoop=1;jettySize=auto;html=1;" parent="1" source="vFlg7M4hYeE5aYaz60vm-664" target="vFlg7M4hYeE5aYaz60vm-666" edge="1">
          <mxGeometry relative="1" as="geometry" />
        </mxCell>
        <mxCell id="vFlg7M4hYeE5aYaz60vm-664" value="Input Email for reset password" style="shape=parallelogram;perimeter=parallelogramPerimeter;whiteSpace=wrap;html=1;fixedSize=1;strokeWidth=2;" parent="1" vertex="1">
          <mxGeometry x="7730" y="1265" width="120" height="60" as="geometry" />
        </mxCell>
        <mxCell id="vFlg7M4hYeE5aYaz60vm-665" value="" style="edgeStyle=orthogonalEdgeStyle;rounded=0;orthogonalLoop=1;jettySize=auto;html=1;" parent="1" source="vFlg7M4hYeE5aYaz60vm-666" target="vFlg7M4hYeE5aYaz60vm-668" edge="1">
          <mxGeometry relative="1" as="geometry" />
        </mxCell>
        <mxCell id="vFlg7M4hYeE5aYaz60vm-666" value="Send Verification Link to Email" style="whiteSpace=wrap;html=1;strokeWidth=2;" parent="1" vertex="1">
          <mxGeometry x="7930" y="1265" width="120" height="60" as="geometry" />
        </mxCell>
        <mxCell id="vFlg7M4hYeE5aYaz60vm-667" value="" style="edgeStyle=orthogonalEdgeStyle;rounded=0;orthogonalLoop=1;jettySize=auto;html=1;" parent="1" source="vFlg7M4hYeE5aYaz60vm-668" target="vFlg7M4hYeE5aYaz60vm-670" edge="1">
          <mxGeometry relative="1" as="geometry" />
        </mxCell>
        <mxCell id="vFlg7M4hYeE5aYaz60vm-668" value="Send Verification Link to Email" style="whiteSpace=wrap;html=1;strokeWidth=2;" parent="1" vertex="1">
          <mxGeometry x="7930" y="1405" width="120" height="60" as="geometry" />
        </mxCell>
        <mxCell id="vFlg7M4hYeE5aYaz60vm-669" value="" style="edgeStyle=orthogonalEdgeStyle;rounded=0;orthogonalLoop=1;jettySize=auto;html=1;" parent="1" source="vFlg7M4hYeE5aYaz60vm-670" target="vFlg7M4hYeE5aYaz60vm-672" edge="1">
          <mxGeometry relative="1" as="geometry" />
        </mxCell>
        <mxCell id="vFlg7M4hYeE5aYaz60vm-670" value="Check Email" style="whiteSpace=wrap;html=1;strokeWidth=2;" parent="1" vertex="1">
          <mxGeometry x="7930" y="1545" width="120" height="60" as="geometry" />
        </mxCell>
        <mxCell id="vFlg7M4hYeE5aYaz60vm-671" value="" style="edgeStyle=orthogonalEdgeStyle;rounded=0;orthogonalLoop=1;jettySize=auto;html=1;" parent="1" source="vFlg7M4hYeE5aYaz60vm-672" target="vFlg7M4hYeE5aYaz60vm-674" edge="1">
          <mxGeometry relative="1" as="geometry" />
        </mxCell>
        <mxCell id="vFlg7M4hYeE5aYaz60vm-672" value="Click Verification Link" style="shape=parallelogram;perimeter=parallelogramPerimeter;whiteSpace=wrap;html=1;fixedSize=1;strokeWidth=2;" parent="1" vertex="1">
          <mxGeometry x="8130" y="1545" width="140" height="60" as="geometry" />
        </mxCell>
        <mxCell id="vFlg7M4hYeE5aYaz60vm-673" value="" style="edgeStyle=orthogonalEdgeStyle;rounded=0;orthogonalLoop=1;jettySize=auto;html=1;" parent="1" source="vFlg7M4hYeE5aYaz60vm-674" target="vFlg7M4hYeE5aYaz60vm-676" edge="1">
          <mxGeometry relative="1" as="geometry" />
        </mxCell>
        <mxCell id="vFlg7M4hYeE5aYaz60vm-674" value="Reset Password" style="whiteSpace=wrap;html=1;strokeWidth=2;" parent="1" vertex="1">
          <mxGeometry x="8140" y="1685" width="120" height="60" as="geometry" />
        </mxCell>
        <mxCell id="vFlg7M4hYeE5aYaz60vm-675" value="" style="edgeStyle=orthogonalEdgeStyle;rounded=0;orthogonalLoop=1;jettySize=auto;html=1;" parent="1" source="vFlg7M4hYeE5aYaz60vm-676" target="vFlg7M4hYeE5aYaz60vm-678" edge="1">
          <mxGeometry relative="1" as="geometry" />
        </mxCell>
        <mxCell id="vFlg7M4hYeE5aYaz60vm-676" value="Input new password" style="shape=parallelogram;perimeter=parallelogramPerimeter;whiteSpace=wrap;html=1;fixedSize=1;strokeWidth=2;" parent="1" vertex="1">
          <mxGeometry x="8135" y="1830" width="130" height="60" as="geometry" />
        </mxCell>
        <mxCell id="vFlg7M4hYeE5aYaz60vm-677" style="edgeStyle=orthogonalEdgeStyle;rounded=0;orthogonalLoop=1;jettySize=auto;html=1;entryX=0;entryY=0.5;entryDx=0;entryDy=0;" parent="1" source="vFlg7M4hYeE5aYaz60vm-678" target="vFlg7M4hYeE5aYaz60vm-644" edge="1">
          <mxGeometry relative="1" as="geometry">
            <Array as="points">
              <mxPoint x="8410" y="1920" />
              <mxPoint x="7630" y="1920" />
              <mxPoint x="7630" y="950" />
            </Array>
          </mxGeometry>
        </mxCell>
        <mxCell id="vFlg7M4hYeE5aYaz60vm-678" value="Notify User" style="whiteSpace=wrap;html=1;strokeWidth=2;" parent="1" vertex="1">
          <mxGeometry x="8350" y="1830" width="120" height="60" as="geometry" />
        </mxCell>
        <mxCell id="vFlg7M4hYeE5aYaz60vm-762" value="" style="edgeStyle=orthogonalEdgeStyle;rounded=0;orthogonalLoop=1;jettySize=auto;html=1;" parent="1" source="vFlg7M4hYeE5aYaz60vm-755" target="vFlg7M4hYeE5aYaz60vm-761" edge="1">
          <mxGeometry relative="1" as="geometry" />
        </mxCell>
        <mxCell id="vFlg7M4hYeE5aYaz60vm-755" value="Store Information" style="whiteSpace=wrap;html=1;strokeWidth=2;" parent="1" vertex="1">
          <mxGeometry x="9240" y="1075" width="120" height="60" as="geometry" />
        </mxCell>
        <mxCell id="vFlg7M4hYeE5aYaz60vm-760" value="" style="edgeStyle=orthogonalEdgeStyle;rounded=0;orthogonalLoop=1;jettySize=auto;html=1;" parent="1" source="vFlg7M4hYeE5aYaz60vm-757" target="vFlg7M4hYeE5aYaz60vm-759" edge="1">
          <mxGeometry relative="1" as="geometry" />
        </mxCell>
        <mxCell id="vFlg7M4hYeE5aYaz60vm-757" value="Input contact information" style="shape=parallelogram;perimeter=parallelogramPerimeter;whiteSpace=wrap;html=1;fixedSize=1;strokeWidth=2;" parent="1" vertex="1">
          <mxGeometry x="9650" y="1075" width="120" height="60" as="geometry" />
        </mxCell>
        <mxCell id="vFlg7M4hYeE5aYaz60vm-765" value="" style="edgeStyle=orthogonalEdgeStyle;rounded=0;orthogonalLoop=1;jettySize=auto;html=1;" parent="1" source="vFlg7M4hYeE5aYaz60vm-759" target="vFlg7M4hYeE5aYaz60vm-764" edge="1">
          <mxGeometry relative="1" as="geometry" />
        </mxCell>
        <mxCell id="vFlg7M4hYeE5aYaz60vm-759" value="Input Operating Hours" style="shape=parallelogram;perimeter=parallelogramPerimeter;whiteSpace=wrap;html=1;fixedSize=1;strokeWidth=2;" parent="1" vertex="1">
          <mxGeometry x="9850" y="1075" width="120" height="60" as="geometry" />
        </mxCell>
        <mxCell id="vFlg7M4hYeE5aYaz60vm-763" style="edgeStyle=orthogonalEdgeStyle;rounded=0;orthogonalLoop=1;jettySize=auto;html=1;" parent="1" source="vFlg7M4hYeE5aYaz60vm-761" target="vFlg7M4hYeE5aYaz60vm-757" edge="1">
          <mxGeometry relative="1" as="geometry" />
        </mxCell>
        <mxCell id="vFlg7M4hYeE5aYaz60vm-761" value="Add Store Information Details" style="whiteSpace=wrap;html=1;strokeWidth=2;" parent="1" vertex="1">
          <mxGeometry x="9440" y="1075" width="120" height="60" as="geometry" />
        </mxCell>
        <mxCell id="vFlg7M4hYeE5aYaz60vm-821" value="" style="edgeStyle=orthogonalEdgeStyle;rounded=0;orthogonalLoop=1;jettySize=auto;html=1;" parent="1" source="vFlg7M4hYeE5aYaz60vm-764" target="vFlg7M4hYeE5aYaz60vm-820" edge="1">
          <mxGeometry relative="1" as="geometry" />
        </mxCell>
        <mxCell id="vFlg7M4hYeE5aYaz60vm-764" value="Add Store Policies" style="whiteSpace=wrap;html=1;strokeWidth=2;" parent="1" vertex="1">
          <mxGeometry x="10050" y="1075" width="120" height="60" as="geometry" />
        </mxCell>
        <mxCell id="vFlg7M4hYeE5aYaz60vm-769" value="" style="edgeStyle=orthogonalEdgeStyle;rounded=0;orthogonalLoop=1;jettySize=auto;html=1;" parent="1" source="vFlg7M4hYeE5aYaz60vm-766" target="vFlg7M4hYeE5aYaz60vm-768" edge="1">
          <mxGeometry relative="1" as="geometry" />
        </mxCell>
        <mxCell id="vFlg7M4hYeE5aYaz60vm-766" value="Products" style="whiteSpace=wrap;html=1;strokeWidth=2;" parent="1" vertex="1">
          <mxGeometry x="9040" y="1215" width="120" height="60" as="geometry" />
        </mxCell>
        <mxCell id="vFlg7M4hYeE5aYaz60vm-771" value="" style="edgeStyle=orthogonalEdgeStyle;rounded=0;orthogonalLoop=1;jettySize=auto;html=1;" parent="1" source="vFlg7M4hYeE5aYaz60vm-768" target="vFlg7M4hYeE5aYaz60vm-770" edge="1">
          <mxGeometry relative="1" as="geometry" />
        </mxCell>
        <mxCell id="vFlg7M4hYeE5aYaz60vm-768" value="Add New Products" style="whiteSpace=wrap;html=1;strokeWidth=2;" parent="1" vertex="1">
          <mxGeometry x="9040" y="1355" width="120" height="60" as="geometry" />
        </mxCell>
        <mxCell id="vFlg7M4hYeE5aYaz60vm-773" value="" style="edgeStyle=orthogonalEdgeStyle;rounded=0;orthogonalLoop=1;jettySize=auto;html=1;" parent="1" source="vFlg7M4hYeE5aYaz60vm-770" target="vFlg7M4hYeE5aYaz60vm-772" edge="1">
          <mxGeometry relative="1" as="geometry" />
        </mxCell>
        <mxCell id="vFlg7M4hYeE5aYaz60vm-770" value="Input Product Name" style="shape=parallelogram;perimeter=parallelogramPerimeter;whiteSpace=wrap;html=1;fixedSize=1;strokeWidth=2;" parent="1" vertex="1">
          <mxGeometry x="9040" y="1495" width="120" height="60" as="geometry" />
        </mxCell>
        <mxCell id="vFlg7M4hYeE5aYaz60vm-775" value="" style="edgeStyle=orthogonalEdgeStyle;rounded=0;orthogonalLoop=1;jettySize=auto;html=1;" parent="1" source="vFlg7M4hYeE5aYaz60vm-772" target="vFlg7M4hYeE5aYaz60vm-774" edge="1">
          <mxGeometry relative="1" as="geometry" />
        </mxCell>
        <mxCell id="vFlg7M4hYeE5aYaz60vm-772" value="Input Product Description" style="shape=parallelogram;perimeter=parallelogramPerimeter;whiteSpace=wrap;html=1;fixedSize=1;strokeWidth=2;" parent="1" vertex="1">
          <mxGeometry x="9040" y="1635" width="120" height="60" as="geometry" />
        </mxCell>
        <mxCell id="vFlg7M4hYeE5aYaz60vm-777" value="" style="edgeStyle=orthogonalEdgeStyle;rounded=0;orthogonalLoop=1;jettySize=auto;html=1;" parent="1" source="vFlg7M4hYeE5aYaz60vm-774" target="vFlg7M4hYeE5aYaz60vm-776" edge="1">
          <mxGeometry relative="1" as="geometry" />
        </mxCell>
        <mxCell id="vFlg7M4hYeE5aYaz60vm-774" value="Input Price" style="shape=parallelogram;perimeter=parallelogramPerimeter;whiteSpace=wrap;html=1;fixedSize=1;strokeWidth=2;" parent="1" vertex="1">
          <mxGeometry x="9040" y="1775" width="120" height="60" as="geometry" />
        </mxCell>
        <mxCell id="vFlg7M4hYeE5aYaz60vm-779" value="" style="edgeStyle=orthogonalEdgeStyle;rounded=0;orthogonalLoop=1;jettySize=auto;html=1;" parent="1" source="vFlg7M4hYeE5aYaz60vm-776" target="vFlg7M4hYeE5aYaz60vm-778" edge="1">
          <mxGeometry relative="1" as="geometry" />
        </mxCell>
        <mxCell id="vFlg7M4hYeE5aYaz60vm-776" value="Upload Image" style="whiteSpace=wrap;html=1;strokeWidth=2;" parent="1" vertex="1">
          <mxGeometry x="9040" y="1915" width="120" height="60" as="geometry" />
        </mxCell>
        <mxCell id="vFlg7M4hYeE5aYaz60vm-783" value="" style="edgeStyle=orthogonalEdgeStyle;rounded=0;orthogonalLoop=1;jettySize=auto;html=1;" parent="1" source="vFlg7M4hYeE5aYaz60vm-778" target="vFlg7M4hYeE5aYaz60vm-782" edge="1">
          <mxGeometry relative="1" as="geometry" />
        </mxCell>
        <mxCell id="vFlg7M4hYeE5aYaz60vm-778" value="Set Inventory Quantity" style="whiteSpace=wrap;html=1;strokeWidth=2;" parent="1" vertex="1">
          <mxGeometry x="9040" y="2055" width="120" height="60" as="geometry" />
        </mxCell>
        <mxCell id="vFlg7M4hYeE5aYaz60vm-785" value="" style="edgeStyle=orthogonalEdgeStyle;rounded=0;orthogonalLoop=1;jettySize=auto;html=1;" parent="1" source="vFlg7M4hYeE5aYaz60vm-782" target="vFlg7M4hYeE5aYaz60vm-784" edge="1">
          <mxGeometry relative="1" as="geometry" />
        </mxCell>
        <mxCell id="vFlg7M4hYeE5aYaz60vm-782" value="Add Category" style="whiteSpace=wrap;html=1;strokeWidth=2;" parent="1" vertex="1">
          <mxGeometry x="9040" y="2195" width="120" height="60" as="geometry" />
        </mxCell>
        <mxCell id="vFlg7M4hYeE5aYaz60vm-784" value="Successfully Created a New Product&amp;nbsp;" style="whiteSpace=wrap;html=1;strokeWidth=2;" parent="1" vertex="1">
          <mxGeometry x="9040" y="2335" width="120" height="60" as="geometry" />
        </mxCell>
        <mxCell id="vFlg7M4hYeE5aYaz60vm-792" value="" style="edgeStyle=orthogonalEdgeStyle;rounded=0;orthogonalLoop=1;jettySize=auto;html=1;" parent="1" source="vFlg7M4hYeE5aYaz60vm-786" target="vFlg7M4hYeE5aYaz60vm-791" edge="1">
          <mxGeometry relative="1" as="geometry" />
        </mxCell>
        <mxCell id="vFlg7M4hYeE5aYaz60vm-815" value="" style="edgeStyle=orthogonalEdgeStyle;rounded=0;orthogonalLoop=1;jettySize=auto;html=1;entryX=0;entryY=0.5;entryDx=0;entryDy=0;" parent="1" source="vFlg7M4hYeE5aYaz60vm-786" target="vFlg7M4hYeE5aYaz60vm-814" edge="1">
          <mxGeometry relative="1" as="geometry" />
        </mxCell>
        <mxCell id="vFlg7M4hYeE5aYaz60vm-786" value="View Orders" style="whiteSpace=wrap;html=1;strokeWidth=2;" parent="1" vertex="1">
          <mxGeometry x="9230" y="1190" width="120" height="60" as="geometry" />
        </mxCell>
        <mxCell id="vFlg7M4hYeE5aYaz60vm-788" value="" style="endArrow=classic;html=1;rounded=0;exitX=1.028;exitY=0.909;exitDx=0;exitDy=0;exitPerimeter=0;entryX=0.413;entryY=-0.007;entryDx=0;entryDy=0;entryPerimeter=0;" parent="1" source="vFlg7M4hYeE5aYaz60vm-662" target="vFlg7M4hYeE5aYaz60vm-786" edge="1">
          <mxGeometry width="50" height="50" relative="1" as="geometry">
            <mxPoint x="9210" y="1210" as="sourcePoint" />
            <mxPoint x="9260" y="1160" as="targetPoint" />
          </mxGeometry>
        </mxCell>
        <mxCell id="vFlg7M4hYeE5aYaz60vm-794" value="" style="edgeStyle=orthogonalEdgeStyle;rounded=0;orthogonalLoop=1;jettySize=auto;html=1;" parent="1" source="vFlg7M4hYeE5aYaz60vm-791" target="vFlg7M4hYeE5aYaz60vm-793" edge="1">
          <mxGeometry relative="1" as="geometry" />
        </mxCell>
        <mxCell id="vFlg7M4hYeE5aYaz60vm-805" style="edgeStyle=orthogonalEdgeStyle;rounded=0;orthogonalLoop=1;jettySize=auto;html=1;" parent="1" source="vFlg7M4hYeE5aYaz60vm-791" target="vFlg7M4hYeE5aYaz60vm-801" edge="1">
          <mxGeometry relative="1" as="geometry">
            <mxPoint x="9580" y="1360" as="targetPoint" />
            <Array as="points">
              <mxPoint x="9500" y="1335" />
              <mxPoint x="9581" y="1335" />
              <mxPoint x="9581" y="1360" />
              <mxPoint x="9740" y="1360" />
            </Array>
          </mxGeometry>
        </mxCell>
        <mxCell id="vFlg7M4hYeE5aYaz60vm-791" value="View List of Incoming orders or Ongoing Orders?" style="rhombus;whiteSpace=wrap;html=1;strokeWidth=2;" parent="1" vertex="1">
          <mxGeometry x="9420" y="1160" width="160" height="150" as="geometry" />
        </mxCell>
        <mxCell id="vFlg7M4hYeE5aYaz60vm-796" value="" style="edgeStyle=orthogonalEdgeStyle;rounded=0;orthogonalLoop=1;jettySize=auto;html=1;" parent="1" source="vFlg7M4hYeE5aYaz60vm-793" target="vFlg7M4hYeE5aYaz60vm-795" edge="1">
          <mxGeometry relative="1" as="geometry" />
        </mxCell>
        <mxCell id="vFlg7M4hYeE5aYaz60vm-793" value="Incoming Orders&amp;nbsp;" style="whiteSpace=wrap;html=1;strokeWidth=2;" parent="1" vertex="1">
          <mxGeometry x="9680" y="1205" width="120" height="60" as="geometry" />
        </mxCell>
        <mxCell id="vFlg7M4hYeE5aYaz60vm-798" value="" style="edgeStyle=orthogonalEdgeStyle;rounded=0;orthogonalLoop=1;jettySize=auto;html=1;" parent="1" source="vFlg7M4hYeE5aYaz60vm-795" target="vFlg7M4hYeE5aYaz60vm-797" edge="1">
          <mxGeometry relative="1" as="geometry" />
        </mxCell>
        <mxCell id="vFlg7M4hYeE5aYaz60vm-795" value="Prepare Order&amp;nbsp;&amp;nbsp;" style="whiteSpace=wrap;html=1;strokeWidth=2;" parent="1" vertex="1">
          <mxGeometry x="9880" y="1205" width="120" height="60" as="geometry" />
        </mxCell>
        <mxCell id="vFlg7M4hYeE5aYaz60vm-800" value="" style="edgeStyle=orthogonalEdgeStyle;rounded=0;orthogonalLoop=1;jettySize=auto;html=1;" parent="1" source="vFlg7M4hYeE5aYaz60vm-797" target="vFlg7M4hYeE5aYaz60vm-799" edge="1">
          <mxGeometry relative="1" as="geometry" />
        </mxCell>
        <mxCell id="vFlg7M4hYeE5aYaz60vm-797" value="Update Status Order" style="whiteSpace=wrap;html=1;strokeWidth=2;" parent="1" vertex="1">
          <mxGeometry x="10080" y="1205" width="120" height="60" as="geometry" />
        </mxCell>
        <mxCell id="vFlg7M4hYeE5aYaz60vm-799" value="Notify Customer" style="whiteSpace=wrap;html=1;strokeWidth=2;" parent="1" vertex="1">
          <mxGeometry x="10280" y="1205" width="120" height="60" as="geometry" />
        </mxCell>
        <mxCell id="vFlg7M4hYeE5aYaz60vm-801" value="Ongoing Orders" style="whiteSpace=wrap;html=1;strokeWidth=2;" parent="1" vertex="1">
          <mxGeometry x="9680" y="1282.51" width="120" height="60" as="geometry" />
        </mxCell>
        <mxCell id="vFlg7M4hYeE5aYaz60vm-804" style="edgeStyle=orthogonalEdgeStyle;rounded=0;orthogonalLoop=1;jettySize=auto;html=1;entryX=0.579;entryY=0.986;entryDx=0;entryDy=0;entryPerimeter=0;" parent="1" source="vFlg7M4hYeE5aYaz60vm-801" target="vFlg7M4hYeE5aYaz60vm-797" edge="1">
          <mxGeometry relative="1" as="geometry" />
        </mxCell>
        <mxCell id="vFlg7M4hYeE5aYaz60vm-809" value="" style="edgeStyle=orthogonalEdgeStyle;rounded=0;orthogonalLoop=1;jettySize=auto;html=1;" parent="1" source="vFlg7M4hYeE5aYaz60vm-806" target="vFlg7M4hYeE5aYaz60vm-808" edge="1">
          <mxGeometry relative="1" as="geometry" />
        </mxCell>
        <mxCell id="vFlg7M4hYeE5aYaz60vm-806" value="Managing Payments" style="whiteSpace=wrap;html=1;strokeWidth=2;" parent="1" vertex="1">
          <mxGeometry x="9100" y="940" width="120" height="60" as="geometry" />
        </mxCell>
        <mxCell id="vFlg7M4hYeE5aYaz60vm-811" value="" style="edgeStyle=orthogonalEdgeStyle;rounded=0;orthogonalLoop=1;jettySize=auto;html=1;" parent="1" source="vFlg7M4hYeE5aYaz60vm-808" target="vFlg7M4hYeE5aYaz60vm-810" edge="1">
          <mxGeometry relative="1" as="geometry" />
        </mxCell>
        <mxCell id="vFlg7M4hYeE5aYaz60vm-808" value="Setup Payment Method" style="whiteSpace=wrap;html=1;strokeWidth=2;" parent="1" vertex="1">
          <mxGeometry x="9300" y="940" width="120" height="60" as="geometry" />
        </mxCell>
        <mxCell id="vFlg7M4hYeE5aYaz60vm-810" value="Track Payment History" style="whiteSpace=wrap;html=1;strokeWidth=2;" parent="1" vertex="1">
          <mxGeometry x="9500" y="940" width="120" height="60" as="geometry" />
        </mxCell>
        <mxCell id="vFlg7M4hYeE5aYaz60vm-817" value="" style="edgeStyle=orthogonalEdgeStyle;rounded=0;orthogonalLoop=1;jettySize=auto;html=1;" parent="1" source="vFlg7M4hYeE5aYaz60vm-814" target="vFlg7M4hYeE5aYaz60vm-816" edge="1">
          <mxGeometry relative="1" as="geometry" />
        </mxCell>
        <mxCell id="vFlg7M4hYeE5aYaz60vm-814" value="Manage Return Refunds" style="whiteSpace=wrap;html=1;strokeWidth=2;" parent="1" vertex="1">
          <mxGeometry x="9390" y="1430" width="120" height="60" as="geometry" />
        </mxCell>
        <mxCell id="vFlg7M4hYeE5aYaz60vm-819" value="" style="edgeStyle=orthogonalEdgeStyle;rounded=0;orthogonalLoop=1;jettySize=auto;html=1;" parent="1" source="vFlg7M4hYeE5aYaz60vm-816" target="vFlg7M4hYeE5aYaz60vm-818" edge="1">
          <mxGeometry relative="1" as="geometry" />
        </mxCell>
        <mxCell id="vFlg7M4hYeE5aYaz60vm-816" value="Review Return Requests" style="whiteSpace=wrap;html=1;strokeWidth=2;" parent="1" vertex="1">
          <mxGeometry x="9590" y="1460" width="120" height="60" as="geometry" />
        </mxCell>
        <mxCell id="vFlg7M4hYeE5aYaz60vm-825" value="" style="edgeStyle=orthogonalEdgeStyle;rounded=0;orthogonalLoop=1;jettySize=auto;html=1;" parent="1" source="vFlg7M4hYeE5aYaz60vm-818" target="vFlg7M4hYeE5aYaz60vm-824" edge="1">
          <mxGeometry relative="1" as="geometry" />
        </mxCell>
        <mxCell id="vFlg7M4hYeE5aYaz60vm-829" value="" style="edgeStyle=orthogonalEdgeStyle;rounded=0;orthogonalLoop=1;jettySize=auto;html=1;" parent="1" source="vFlg7M4hYeE5aYaz60vm-818" target="vFlg7M4hYeE5aYaz60vm-828" edge="1">
          <mxGeometry relative="1" as="geometry" />
        </mxCell>
        <mxCell id="vFlg7M4hYeE5aYaz60vm-818" value="Approve or Reject" style="rhombus;whiteSpace=wrap;html=1;strokeWidth=2;" parent="1" vertex="1">
          <mxGeometry x="9810" y="1410" width="120" height="120" as="geometry" />
        </mxCell>
        <mxCell id="vFlg7M4hYeE5aYaz60vm-823" value="" style="edgeStyle=orthogonalEdgeStyle;rounded=0;orthogonalLoop=1;jettySize=auto;html=1;" parent="1" source="vFlg7M4hYeE5aYaz60vm-820" target="vFlg7M4hYeE5aYaz60vm-822" edge="1">
          <mxGeometry relative="1" as="geometry" />
        </mxCell>
        <mxCell id="vFlg7M4hYeE5aYaz60vm-820" value="Terms and Conditions" style="whiteSpace=wrap;html=1;strokeWidth=2;" parent="1" vertex="1">
          <mxGeometry x="10250" y="1075" width="120" height="60" as="geometry" />
        </mxCell>
        <mxCell id="vFlg7M4hYeE5aYaz60vm-822" value="Return Refund Policies" style="whiteSpace=wrap;html=1;strokeWidth=2;" parent="1" vertex="1">
          <mxGeometry x="10450" y="1075" width="120" height="60" as="geometry" />
        </mxCell>
        <mxCell id="vFlg7M4hYeE5aYaz60vm-827" value="" style="edgeStyle=orthogonalEdgeStyle;rounded=0;orthogonalLoop=1;jettySize=auto;html=1;" parent="1" source="vFlg7M4hYeE5aYaz60vm-824" target="vFlg7M4hYeE5aYaz60vm-826" edge="1">
          <mxGeometry relative="1" as="geometry" />
        </mxCell>
        <mxCell id="vFlg7M4hYeE5aYaz60vm-824" value="Approve" style="whiteSpace=wrap;html=1;strokeWidth=2;" parent="1" vertex="1">
          <mxGeometry x="9810" y="1640" width="120" height="60" as="geometry" />
        </mxCell>
        <mxCell id="vFlg7M4hYeE5aYaz60vm-826" value="Initiate Return Products or Refunds" style="rounded=1;whiteSpace=wrap;html=1;strokeWidth=2;" parent="1" vertex="1">
          <mxGeometry x="10010" y="1640" width="120" height="60" as="geometry" />
        </mxCell>
        <mxCell id="vFlg7M4hYeE5aYaz60vm-828" value="Rejected" style="whiteSpace=wrap;html=1;strokeWidth=2;" parent="1" vertex="1">
          <mxGeometry x="10010" y="1440" width="120" height="60" as="geometry" />
        </mxCell>
        <mxCell id="vFlg7M4hYeE5aYaz60vm-830" style="edgeStyle=orthogonalEdgeStyle;rounded=0;orthogonalLoop=1;jettySize=auto;html=1;entryX=0.998;entryY=0.383;entryDx=0;entryDy=0;entryPerimeter=0;" parent="1" source="vFlg7M4hYeE5aYaz60vm-828" target="vFlg7M4hYeE5aYaz60vm-822" edge="1">
          <mxGeometry relative="1" as="geometry" />
        </mxCell>
        <mxCell id="vFlg7M4hYeE5aYaz60vm-831" value="" style="endArrow=classic;html=1;rounded=0;exitX=0;exitY=1;exitDx=0;exitDy=0;entryX=0.5;entryY=0;entryDx=0;entryDy=0;" parent="1" source="vFlg7M4hYeE5aYaz60vm-662" target="vFlg7M4hYeE5aYaz60vm-832" edge="1">
          <mxGeometry width="50" height="50" relative="1" as="geometry">
            <mxPoint x="8780" y="1330" as="sourcePoint" />
            <mxPoint x="8940" y="1190" as="targetPoint" />
          </mxGeometry>
        </mxCell>
        <mxCell id="vFlg7M4hYeE5aYaz60vm-834" value="" style="edgeStyle=orthogonalEdgeStyle;rounded=0;orthogonalLoop=1;jettySize=auto;html=1;" parent="1" source="vFlg7M4hYeE5aYaz60vm-832" target="vFlg7M4hYeE5aYaz60vm-833" edge="1">
          <mxGeometry relative="1" as="geometry" />
        </mxCell>
        <mxCell id="vFlg7M4hYeE5aYaz60vm-832" value="Sales Report" style="rounded=0;whiteSpace=wrap;html=1;" parent="1" vertex="1">
          <mxGeometry x="8850" y="1180" width="120" height="60" as="geometry" />
        </mxCell>
        <mxCell id="vFlg7M4hYeE5aYaz60vm-838" value="" style="edgeStyle=orthogonalEdgeStyle;rounded=0;orthogonalLoop=1;jettySize=auto;html=1;" parent="1" source="vFlg7M4hYeE5aYaz60vm-833" target="vFlg7M4hYeE5aYaz60vm-837" edge="1">
          <mxGeometry relative="1" as="geometry" />
        </mxCell>
        <mxCell id="vFlg7M4hYeE5aYaz60vm-833" value="View Sales Report" style="whiteSpace=wrap;html=1;rounded=0;" parent="1" vertex="1">
          <mxGeometry x="8805" y="1295" width="120" height="60" as="geometry" />
        </mxCell>
        <mxCell id="vFlg7M4hYeE5aYaz60vm-837" value="Download Sales Report" style="whiteSpace=wrap;html=1;rounded=0;" parent="1" vertex="1">
          <mxGeometry x="8805" y="1435" width="120" height="60" as="geometry" />
        </mxCell>
        <mxCell id="W_JYpqeJe5rrHnfJUu0t-1" value="" style="endArrow=classic;html=1;rounded=0;entryX=0;entryY=0.5;entryDx=0;entryDy=0;" edge="1" parent="1" source="vFlg7M4hYeE5aYaz60vm-662" target="W_JYpqeJe5rrHnfJUu0t-2">
          <mxGeometry width="50" height="50" relative="1" as="geometry">
            <mxPoint x="9230" y="1430" as="sourcePoint" />
            <mxPoint x="9300" y="1570" as="targetPoint" />
            <Array as="points">
              <mxPoint x="9220" y="1280" />
            </Array>
          </mxGeometry>
        </mxCell>
        <mxCell id="W_JYpqeJe5rrHnfJUu0t-4" value="" style="edgeStyle=orthogonalEdgeStyle;rounded=0;orthogonalLoop=1;jettySize=auto;html=1;" edge="1" parent="1" source="W_JYpqeJe5rrHnfJUu0t-2" target="W_JYpqeJe5rrHnfJUu0t-3">
          <mxGeometry relative="1" as="geometry" />
        </mxCell>
        <mxCell id="W_JYpqeJe5rrHnfJUu0t-2" value="Manage Inventory" style="rounded=0;whiteSpace=wrap;html=1;" vertex="1" parent="1">
          <mxGeometry x="9330" y="1620" width="120" height="60" as="geometry" />
        </mxCell>
        <mxCell id="W_JYpqeJe5rrHnfJUu0t-6" value="" style="edgeStyle=orthogonalEdgeStyle;rounded=0;orthogonalLoop=1;jettySize=auto;html=1;" edge="1" parent="1" source="W_JYpqeJe5rrHnfJUu0t-3" target="W_JYpqeJe5rrHnfJUu0t-5">
          <mxGeometry relative="1" as="geometry" />
        </mxCell>
        <mxCell id="W_JYpqeJe5rrHnfJUu0t-3" value="Show Product Inventory" style="whiteSpace=wrap;html=1;rounded=0;" vertex="1" parent="1">
          <mxGeometry x="9530" y="1620" width="120" height="60" as="geometry" />
        </mxCell>
        <mxCell id="W_JYpqeJe5rrHnfJUu0t-5" value="Update Inventory" style="whiteSpace=wrap;html=1;rounded=0;" vertex="1" parent="1">
          <mxGeometry x="9530" y="1760" width="120" height="60" as="geometry" />
        </mxCell>
      </root>
    </mxGraphModel>
  </diagram>
</mxfile>
